%TF.GenerationSoftware,KiCad,Pcbnew,(6.0.0)*%
%TF.CreationDate,2022-01-08T09:02:27-05:00*%
%TF.ProjectId,iType,69547970-652e-46b6-9963-61645f706362,rev?*%
%TF.SameCoordinates,Original*%
%TF.FileFunction,Legend,Bot*%
%TF.FilePolarity,Positive*%
%FSLAX46Y46*%
G04 Gerber Fmt 4.6, Leading zero omitted, Abs format (unit mm)*
G04 Created by KiCad (PCBNEW (6.0.0)) date 2022-01-08 09:02:27*
%MOMM*%
%LPD*%
G01*
G04 APERTURE LIST*
%ADD10C,0.150000*%
%ADD11C,0.381000*%
%ADD12C,0.120000*%
%ADD13R,1.752600X1.752600*%
%ADD14C,1.752600*%
G04 APERTURE END LIST*
D10*
X206123619Y-40695714D02*
X206790285Y-40695714D01*
X207123619Y-40695714D02*
X207076000Y-40743333D01*
X207028380Y-40695714D01*
X207076000Y-40648095D01*
X207123619Y-40695714D01*
X207028380Y-40695714D01*
X207123619Y-40362380D02*
X207123619Y-39790952D01*
X206123619Y-40076666D02*
X207123619Y-40076666D01*
X206790285Y-39552857D02*
X206123619Y-39314761D01*
X206790285Y-39076666D02*
X206123619Y-39314761D01*
X205885523Y-39410000D01*
X205837904Y-39457619D01*
X205790285Y-39552857D01*
X206790285Y-38695714D02*
X205790285Y-38695714D01*
X206742666Y-38695714D02*
X206790285Y-38600476D01*
X206790285Y-38410000D01*
X206742666Y-38314761D01*
X206695047Y-38267142D01*
X206599809Y-38219523D01*
X206314095Y-38219523D01*
X206218857Y-38267142D01*
X206171238Y-38314761D01*
X206123619Y-38410000D01*
X206123619Y-38600476D01*
X206171238Y-38695714D01*
X206171238Y-37410000D02*
X206123619Y-37505238D01*
X206123619Y-37695714D01*
X206171238Y-37790952D01*
X206266476Y-37838571D01*
X206647428Y-37838571D01*
X206742666Y-37790952D01*
X206790285Y-37695714D01*
X206790285Y-37505238D01*
X206742666Y-37410000D01*
X206647428Y-37362380D01*
X206552190Y-37362380D01*
X206456952Y-37838571D01*
X206123619Y-36171904D02*
X207123619Y-36171904D01*
X207123619Y-35790952D01*
X207076000Y-35695714D01*
X207028380Y-35648095D01*
X206933142Y-35600476D01*
X206790285Y-35600476D01*
X206695047Y-35648095D01*
X206647428Y-35695714D01*
X206599809Y-35790952D01*
X206599809Y-36171904D01*
X206218857Y-34600476D02*
X206171238Y-34648095D01*
X206123619Y-34790952D01*
X206123619Y-34886190D01*
X206171238Y-35029047D01*
X206266476Y-35124285D01*
X206361714Y-35171904D01*
X206552190Y-35219523D01*
X206695047Y-35219523D01*
X206885523Y-35171904D01*
X206980761Y-35124285D01*
X207076000Y-35029047D01*
X207123619Y-34886190D01*
X207123619Y-34790952D01*
X207076000Y-34648095D01*
X207028380Y-34600476D01*
X206647428Y-33838571D02*
X206599809Y-33695714D01*
X206552190Y-33648095D01*
X206456952Y-33600476D01*
X206314095Y-33600476D01*
X206218857Y-33648095D01*
X206171238Y-33695714D01*
X206123619Y-33790952D01*
X206123619Y-34171904D01*
X207123619Y-34171904D01*
X207123619Y-33838571D01*
X207076000Y-33743333D01*
X207028380Y-33695714D01*
X206933142Y-33648095D01*
X206837904Y-33648095D01*
X206742666Y-33695714D01*
X206695047Y-33743333D01*
X206647428Y-33838571D01*
X206647428Y-34171904D01*
X206647428Y-32076666D02*
X206599809Y-31933809D01*
X206552190Y-31886190D01*
X206456952Y-31838571D01*
X206314095Y-31838571D01*
X206218857Y-31886190D01*
X206171238Y-31933809D01*
X206123619Y-32029047D01*
X206123619Y-32410000D01*
X207123619Y-32410000D01*
X207123619Y-32076666D01*
X207076000Y-31981428D01*
X207028380Y-31933809D01*
X206933142Y-31886190D01*
X206837904Y-31886190D01*
X206742666Y-31933809D01*
X206695047Y-31981428D01*
X206647428Y-32076666D01*
X206647428Y-32410000D01*
X206790285Y-31505238D02*
X206123619Y-31267142D01*
X206790285Y-31029047D02*
X206123619Y-31267142D01*
X205885523Y-31362380D01*
X205837904Y-31410000D01*
X205790285Y-31505238D01*
X206123619Y-29886190D02*
X207123619Y-29886190D01*
X206409333Y-29552857D01*
X207123619Y-29219523D01*
X206123619Y-29219523D01*
X206123619Y-28314761D02*
X206647428Y-28314761D01*
X206742666Y-28362380D01*
X206790285Y-28457619D01*
X206790285Y-28648095D01*
X206742666Y-28743333D01*
X206171238Y-28314761D02*
X206123619Y-28410000D01*
X206123619Y-28648095D01*
X206171238Y-28743333D01*
X206266476Y-28790952D01*
X206361714Y-28790952D01*
X206456952Y-28743333D01*
X206504571Y-28648095D01*
X206504571Y-28410000D01*
X206552190Y-28314761D01*
X206123619Y-27838571D02*
X207123619Y-27838571D01*
X206504571Y-27743333D02*
X206123619Y-27457619D01*
X206790285Y-27457619D02*
X206409333Y-27838571D01*
X206171238Y-26648095D02*
X206123619Y-26743333D01*
X206123619Y-26933809D01*
X206171238Y-27029047D01*
X206266476Y-27076666D01*
X206647428Y-27076666D01*
X206742666Y-27029047D01*
X206790285Y-26933809D01*
X206790285Y-26743333D01*
X206742666Y-26648095D01*
X206647428Y-26600476D01*
X206552190Y-26600476D01*
X206456952Y-27076666D01*
X206123619Y-26171904D02*
X206790285Y-26171904D01*
X206599809Y-26171904D02*
X206695047Y-26124285D01*
X206742666Y-26076666D01*
X206790285Y-25981428D01*
X206790285Y-25886190D01*
X207123619Y-25267142D02*
X206409333Y-25267142D01*
X206266476Y-25314761D01*
X206171238Y-25410000D01*
X206123619Y-25552857D01*
X206123619Y-25648095D01*
X206123619Y-24362380D02*
X206647428Y-24362380D01*
X206742666Y-24410000D01*
X206790285Y-24505238D01*
X206790285Y-24695714D01*
X206742666Y-24790952D01*
X206171238Y-24362380D02*
X206123619Y-24457619D01*
X206123619Y-24695714D01*
X206171238Y-24790952D01*
X206266476Y-24838571D01*
X206361714Y-24838571D01*
X206456952Y-24790952D01*
X206504571Y-24695714D01*
X206504571Y-24457619D01*
X206552190Y-24362380D01*
X206123619Y-23886190D02*
X207123619Y-23886190D01*
X206504571Y-23790952D02*
X206123619Y-23505238D01*
X206790285Y-23505238D02*
X206409333Y-23886190D01*
X206171238Y-22695714D02*
X206123619Y-22790952D01*
X206123619Y-22981428D01*
X206171238Y-23076666D01*
X206266476Y-23124285D01*
X206647428Y-23124285D01*
X206742666Y-23076666D01*
X206790285Y-22981428D01*
X206790285Y-22790952D01*
X206742666Y-22695714D01*
X206647428Y-22648095D01*
X206552190Y-22648095D01*
X206456952Y-23124285D01*
X206123619Y-21457619D02*
X207123619Y-21457619D01*
X206123619Y-20886190D02*
X206695047Y-21314761D01*
X207123619Y-20886190D02*
X206552190Y-21457619D01*
X206123619Y-19981428D02*
X206123619Y-20457619D01*
X207123619Y-20457619D01*
X206647428Y-19648095D02*
X206647428Y-19314761D01*
X206123619Y-19171904D02*
X206123619Y-19648095D01*
X207123619Y-19648095D01*
X207123619Y-19171904D01*
X206647428Y-17648095D02*
X206599809Y-17505238D01*
X206552190Y-17457619D01*
X206456952Y-17410000D01*
X206314095Y-17410000D01*
X206218857Y-17457619D01*
X206171238Y-17505238D01*
X206123619Y-17600476D01*
X206123619Y-17981428D01*
X207123619Y-17981428D01*
X207123619Y-17648095D01*
X207076000Y-17552857D01*
X207028380Y-17505238D01*
X206933142Y-17457619D01*
X206837904Y-17457619D01*
X206742666Y-17505238D01*
X206695047Y-17552857D01*
X206647428Y-17648095D01*
X206647428Y-17981428D01*
X206790285Y-17076666D02*
X206123619Y-16838571D01*
X206790285Y-16600476D02*
X206123619Y-16838571D01*
X205885523Y-16933809D01*
X205837904Y-16981428D01*
X205790285Y-17076666D01*
X206123619Y-15457619D02*
X207123619Y-15457619D01*
X207123619Y-15219523D01*
X207076000Y-15076666D01*
X206980761Y-14981428D01*
X206885523Y-14933809D01*
X206695047Y-14886190D01*
X206552190Y-14886190D01*
X206361714Y-14933809D01*
X206266476Y-14981428D01*
X206171238Y-15076666D01*
X206123619Y-15219523D01*
X206123619Y-15457619D01*
X206123619Y-14457619D02*
X206790285Y-14457619D01*
X206599809Y-14457619D02*
X206695047Y-14410000D01*
X206742666Y-14362380D01*
X206790285Y-14267142D01*
X206790285Y-14171904D01*
X206218857Y-13838571D02*
X206171238Y-13790952D01*
X206123619Y-13838571D01*
X206171238Y-13886190D01*
X206218857Y-13838571D01*
X206123619Y-13838571D01*
X206123619Y-12029047D02*
X206599809Y-12362380D01*
X206123619Y-12600476D02*
X207123619Y-12600476D01*
X207123619Y-12219523D01*
X207076000Y-12124285D01*
X207028380Y-12076666D01*
X206933142Y-12029047D01*
X206790285Y-12029047D01*
X206695047Y-12076666D01*
X206647428Y-12124285D01*
X206599809Y-12219523D01*
X206599809Y-12600476D01*
X206123619Y-11171904D02*
X206647428Y-11171904D01*
X206742666Y-11219523D01*
X206790285Y-11314761D01*
X206790285Y-11505238D01*
X206742666Y-11600476D01*
X206171238Y-11171904D02*
X206123619Y-11267142D01*
X206123619Y-11505238D01*
X206171238Y-11600476D01*
X206266476Y-11648095D01*
X206361714Y-11648095D01*
X206456952Y-11600476D01*
X206504571Y-11505238D01*
X206504571Y-11267142D01*
X206552190Y-11171904D01*
X206790285Y-10838571D02*
X206790285Y-10457619D01*
X207123619Y-10695714D02*
X206266476Y-10695714D01*
X206171238Y-10648095D01*
X206123619Y-10552857D01*
X206123619Y-10457619D01*
X206171238Y-10171904D02*
X206123619Y-10076666D01*
X206123619Y-9886190D01*
X206171238Y-9790952D01*
X206266476Y-9743333D01*
X206314095Y-9743333D01*
X206409333Y-9790952D01*
X206456952Y-9886190D01*
X206456952Y-10029047D01*
X206504571Y-10124285D01*
X206599809Y-10171904D01*
X206647428Y-10171904D01*
X206742666Y-10124285D01*
X206790285Y-10029047D01*
X206790285Y-9886190D01*
X206742666Y-9790952D01*
X206123619Y-9314761D02*
X207123619Y-9314761D01*
X206742666Y-9314761D02*
X206790285Y-9219523D01*
X206790285Y-9029047D01*
X206742666Y-8933809D01*
X206695047Y-8886190D01*
X206599809Y-8838571D01*
X206314095Y-8838571D01*
X206218857Y-8886190D01*
X206171238Y-8933809D01*
X206123619Y-9029047D01*
X206123619Y-9219523D01*
X206171238Y-9314761D01*
X206790285Y-8505238D02*
X206123619Y-8267142D01*
X206790285Y-8029047D02*
X206123619Y-8267142D01*
X205885523Y-8362380D01*
X205837904Y-8410000D01*
X205790285Y-8505238D01*
%TO.C,U1*%
X32743666Y-24577857D02*
X33010333Y-24577857D01*
X33010333Y-24996904D02*
X33010333Y-24196904D01*
X32629380Y-24196904D01*
X31943666Y-24196904D02*
X32324619Y-24196904D01*
X32362714Y-24577857D01*
X32324619Y-24539761D01*
X32248428Y-24501666D01*
X32057952Y-24501666D01*
X31981761Y-24539761D01*
X31943666Y-24577857D01*
X31905571Y-24654047D01*
X31905571Y-24844523D01*
X31943666Y-24920714D01*
X31981761Y-24958809D01*
X32057952Y-24996904D01*
X32248428Y-24996904D01*
X32324619Y-24958809D01*
X32362714Y-24920714D01*
X32743666Y-27117857D02*
X33010333Y-27117857D01*
X33010333Y-27536904D02*
X33010333Y-26736904D01*
X32629380Y-26736904D01*
X31981761Y-26736904D02*
X32134142Y-26736904D01*
X32210333Y-26775000D01*
X32248428Y-26813095D01*
X32324619Y-26927380D01*
X32362714Y-27079761D01*
X32362714Y-27384523D01*
X32324619Y-27460714D01*
X32286523Y-27498809D01*
X32210333Y-27536904D01*
X32057952Y-27536904D01*
X31981761Y-27498809D01*
X31943666Y-27460714D01*
X31905571Y-27384523D01*
X31905571Y-27194047D01*
X31943666Y-27117857D01*
X31981761Y-27079761D01*
X32057952Y-27041666D01*
X32210333Y-27041666D01*
X32286523Y-27079761D01*
X32324619Y-27117857D01*
X32362714Y-27194047D01*
X22107380Y-34737857D02*
X21840714Y-34737857D01*
X21726428Y-35156904D02*
X22107380Y-35156904D01*
X22107380Y-34356904D01*
X21726428Y-34356904D01*
X21040714Y-34356904D02*
X21193095Y-34356904D01*
X21269285Y-34395000D01*
X21307380Y-34433095D01*
X21383571Y-34547380D01*
X21421666Y-34699761D01*
X21421666Y-35004523D01*
X21383571Y-35080714D01*
X21345476Y-35118809D01*
X21269285Y-35156904D01*
X21116904Y-35156904D01*
X21040714Y-35118809D01*
X21002619Y-35080714D01*
X20964523Y-35004523D01*
X20964523Y-34814047D01*
X21002619Y-34737857D01*
X21040714Y-34699761D01*
X21116904Y-34661666D01*
X21269285Y-34661666D01*
X21345476Y-34699761D01*
X21383571Y-34737857D01*
X21421666Y-34814047D01*
X32589333Y-17318809D02*
X32475047Y-17356904D01*
X32284571Y-17356904D01*
X32208380Y-17318809D01*
X32170285Y-17280714D01*
X32132190Y-17204523D01*
X32132190Y-17128333D01*
X32170285Y-17052142D01*
X32208380Y-17014047D01*
X32284571Y-16975952D01*
X32436952Y-16937857D01*
X32513142Y-16899761D01*
X32551238Y-16861666D01*
X32589333Y-16785476D01*
X32589333Y-16709285D01*
X32551238Y-16633095D01*
X32513142Y-16595000D01*
X32436952Y-16556904D01*
X32246476Y-16556904D01*
X32132190Y-16595000D01*
X31903619Y-16556904D02*
X31446476Y-16556904D01*
X31675047Y-17356904D02*
X31675047Y-16556904D01*
X32800809Y-34737857D02*
X32686523Y-34775952D01*
X32648428Y-34814047D01*
X32610333Y-34890238D01*
X32610333Y-35004523D01*
X32648428Y-35080714D01*
X32686523Y-35118809D01*
X32762714Y-35156904D01*
X33067476Y-35156904D01*
X33067476Y-34356904D01*
X32800809Y-34356904D01*
X32724619Y-34395000D01*
X32686523Y-34433095D01*
X32648428Y-34509285D01*
X32648428Y-34585476D01*
X32686523Y-34661666D01*
X32724619Y-34699761D01*
X32800809Y-34737857D01*
X33067476Y-34737857D01*
X32343666Y-34356904D02*
X31848428Y-34356904D01*
X32115095Y-34661666D01*
X32000809Y-34661666D01*
X31924619Y-34699761D01*
X31886523Y-34737857D01*
X31848428Y-34814047D01*
X31848428Y-35004523D01*
X31886523Y-35080714D01*
X31924619Y-35118809D01*
X32000809Y-35156904D01*
X32229380Y-35156904D01*
X32305571Y-35118809D01*
X32343666Y-35080714D01*
X22145476Y-27536904D02*
X22145476Y-26736904D01*
X21955000Y-26736904D01*
X21840714Y-26775000D01*
X21764523Y-26851190D01*
X21726428Y-26927380D01*
X21688333Y-27079761D01*
X21688333Y-27194047D01*
X21726428Y-27346428D01*
X21764523Y-27422619D01*
X21840714Y-27498809D01*
X21955000Y-27536904D01*
X22145476Y-27536904D01*
X21002619Y-27003571D02*
X21002619Y-27536904D01*
X21193095Y-26698809D02*
X21383571Y-27270238D01*
X20888333Y-27270238D01*
X32743666Y-29657857D02*
X33010333Y-29657857D01*
X33010333Y-30076904D02*
X33010333Y-29276904D01*
X32629380Y-29276904D01*
X32400809Y-29276904D02*
X31867476Y-29276904D01*
X32210333Y-30076904D01*
X32743666Y-22037857D02*
X33010333Y-22037857D01*
X33010333Y-22456904D02*
X33010333Y-21656904D01*
X32629380Y-21656904D01*
X31981761Y-21923571D02*
X31981761Y-22456904D01*
X32172238Y-21618809D02*
X32362714Y-22190238D01*
X31867476Y-22190238D01*
X22164523Y-16615000D02*
X22240714Y-16576904D01*
X22355000Y-16576904D01*
X22469285Y-16615000D01*
X22545476Y-16691190D01*
X22583571Y-16767380D01*
X22621666Y-16919761D01*
X22621666Y-17034047D01*
X22583571Y-17186428D01*
X22545476Y-17262619D01*
X22469285Y-17338809D01*
X22355000Y-17376904D01*
X22278809Y-17376904D01*
X22164523Y-17338809D01*
X22126428Y-17300714D01*
X22126428Y-17034047D01*
X22278809Y-17034047D01*
X21783571Y-17376904D02*
X21783571Y-16576904D01*
X21326428Y-17376904D01*
X21326428Y-16576904D01*
X20945476Y-17376904D02*
X20945476Y-16576904D01*
X20755000Y-16576904D01*
X20640714Y-16615000D01*
X20564523Y-16691190D01*
X20526428Y-16767380D01*
X20488333Y-16919761D01*
X20488333Y-17034047D01*
X20526428Y-17186428D01*
X20564523Y-17262619D01*
X20640714Y-17338809D01*
X20755000Y-17376904D01*
X20945476Y-17376904D01*
X22164523Y-19155000D02*
X22240714Y-19116904D01*
X22355000Y-19116904D01*
X22469285Y-19155000D01*
X22545476Y-19231190D01*
X22583571Y-19307380D01*
X22621666Y-19459761D01*
X22621666Y-19574047D01*
X22583571Y-19726428D01*
X22545476Y-19802619D01*
X22469285Y-19878809D01*
X22355000Y-19916904D01*
X22278809Y-19916904D01*
X22164523Y-19878809D01*
X22126428Y-19840714D01*
X22126428Y-19574047D01*
X22278809Y-19574047D01*
X21783571Y-19916904D02*
X21783571Y-19116904D01*
X21326428Y-19916904D01*
X21326428Y-19116904D01*
X20945476Y-19916904D02*
X20945476Y-19116904D01*
X20755000Y-19116904D01*
X20640714Y-19155000D01*
X20564523Y-19231190D01*
X20526428Y-19307380D01*
X20488333Y-19459761D01*
X20488333Y-19574047D01*
X20526428Y-19726428D01*
X20564523Y-19802619D01*
X20640714Y-19878809D01*
X20755000Y-19916904D01*
X20945476Y-19916904D01*
X21688333Y-30000714D02*
X21726428Y-30038809D01*
X21840714Y-30076904D01*
X21916904Y-30076904D01*
X22031190Y-30038809D01*
X22107380Y-29962619D01*
X22145476Y-29886428D01*
X22183571Y-29734047D01*
X22183571Y-29619761D01*
X22145476Y-29467380D01*
X22107380Y-29391190D01*
X22031190Y-29315000D01*
X21916904Y-29276904D01*
X21840714Y-29276904D01*
X21726428Y-29315000D01*
X21688333Y-29353095D01*
X21002619Y-29276904D02*
X21155000Y-29276904D01*
X21231190Y-29315000D01*
X21269285Y-29353095D01*
X21345476Y-29467380D01*
X21383571Y-29619761D01*
X21383571Y-29924523D01*
X21345476Y-30000714D01*
X21307380Y-30038809D01*
X21231190Y-30076904D01*
X21078809Y-30076904D01*
X21002619Y-30038809D01*
X20964523Y-30000714D01*
X20926428Y-29924523D01*
X20926428Y-29734047D01*
X20964523Y-29657857D01*
X21002619Y-29619761D01*
X21078809Y-29581666D01*
X21231190Y-29581666D01*
X21307380Y-29619761D01*
X21345476Y-29657857D01*
X21383571Y-29734047D01*
X21878809Y-39817857D02*
X21764523Y-39855952D01*
X21726428Y-39894047D01*
X21688333Y-39970238D01*
X21688333Y-40084523D01*
X21726428Y-40160714D01*
X21764523Y-40198809D01*
X21840714Y-40236904D01*
X22145476Y-40236904D01*
X22145476Y-39436904D01*
X21878809Y-39436904D01*
X21802619Y-39475000D01*
X21764523Y-39513095D01*
X21726428Y-39589285D01*
X21726428Y-39665476D01*
X21764523Y-39741666D01*
X21802619Y-39779761D01*
X21878809Y-39817857D01*
X22145476Y-39817857D01*
X20964523Y-39436904D02*
X21345476Y-39436904D01*
X21383571Y-39817857D01*
X21345476Y-39779761D01*
X21269285Y-39741666D01*
X21078809Y-39741666D01*
X21002619Y-39779761D01*
X20964523Y-39817857D01*
X20926428Y-39894047D01*
X20926428Y-40084523D01*
X20964523Y-40160714D01*
X21002619Y-40198809D01*
X21078809Y-40236904D01*
X21269285Y-40236904D01*
X21345476Y-40198809D01*
X21383571Y-40160714D01*
X32800809Y-39817857D02*
X32686523Y-39855952D01*
X32648428Y-39894047D01*
X32610333Y-39970238D01*
X32610333Y-40084523D01*
X32648428Y-40160714D01*
X32686523Y-40198809D01*
X32762714Y-40236904D01*
X33067476Y-40236904D01*
X33067476Y-39436904D01*
X32800809Y-39436904D01*
X32724619Y-39475000D01*
X32686523Y-39513095D01*
X32648428Y-39589285D01*
X32648428Y-39665476D01*
X32686523Y-39741666D01*
X32724619Y-39779761D01*
X32800809Y-39817857D01*
X33067476Y-39817857D01*
X31924619Y-39436904D02*
X32077000Y-39436904D01*
X32153190Y-39475000D01*
X32191285Y-39513095D01*
X32267476Y-39627380D01*
X32305571Y-39779761D01*
X32305571Y-40084523D01*
X32267476Y-40160714D01*
X32229380Y-40198809D01*
X32153190Y-40236904D01*
X32000809Y-40236904D01*
X31924619Y-40198809D01*
X31886523Y-40160714D01*
X31848428Y-40084523D01*
X31848428Y-39894047D01*
X31886523Y-39817857D01*
X31924619Y-39779761D01*
X32000809Y-39741666D01*
X32153190Y-39741666D01*
X32229380Y-39779761D01*
X32267476Y-39817857D01*
X32305571Y-39894047D01*
X32800809Y-37277857D02*
X32686523Y-37315952D01*
X32648428Y-37354047D01*
X32610333Y-37430238D01*
X32610333Y-37544523D01*
X32648428Y-37620714D01*
X32686523Y-37658809D01*
X32762714Y-37696904D01*
X33067476Y-37696904D01*
X33067476Y-36896904D01*
X32800809Y-36896904D01*
X32724619Y-36935000D01*
X32686523Y-36973095D01*
X32648428Y-37049285D01*
X32648428Y-37125476D01*
X32686523Y-37201666D01*
X32724619Y-37239761D01*
X32800809Y-37277857D01*
X33067476Y-37277857D01*
X32305571Y-36973095D02*
X32267476Y-36935000D01*
X32191285Y-36896904D01*
X32000809Y-36896904D01*
X31924619Y-36935000D01*
X31886523Y-36973095D01*
X31848428Y-37049285D01*
X31848428Y-37125476D01*
X31886523Y-37239761D01*
X32343666Y-37696904D01*
X31848428Y-37696904D01*
X22145476Y-24996904D02*
X22145476Y-24196904D01*
X21955000Y-24196904D01*
X21840714Y-24235000D01*
X21764523Y-24311190D01*
X21726428Y-24387380D01*
X21688333Y-24539761D01*
X21688333Y-24654047D01*
X21726428Y-24806428D01*
X21764523Y-24882619D01*
X21840714Y-24958809D01*
X21955000Y-24996904D01*
X22145476Y-24996904D01*
X21193095Y-24196904D02*
X21116904Y-24196904D01*
X21040714Y-24235000D01*
X21002619Y-24273095D01*
X20964523Y-24349285D01*
X20926428Y-24501666D01*
X20926428Y-24692142D01*
X20964523Y-24844523D01*
X21002619Y-24920714D01*
X21040714Y-24958809D01*
X21116904Y-24996904D01*
X21193095Y-24996904D01*
X21269285Y-24958809D01*
X21307380Y-24920714D01*
X21345476Y-24844523D01*
X21383571Y-24692142D01*
X21383571Y-24501666D01*
X21345476Y-24349285D01*
X21307380Y-24273095D01*
X21269285Y-24235000D01*
X21193095Y-24196904D01*
X33029380Y-12296904D02*
X33296047Y-11915952D01*
X33486523Y-12296904D02*
X33486523Y-11496904D01*
X33181761Y-11496904D01*
X33105571Y-11535000D01*
X33067476Y-11573095D01*
X33029380Y-11649285D01*
X33029380Y-11763571D01*
X33067476Y-11839761D01*
X33105571Y-11877857D01*
X33181761Y-11915952D01*
X33486523Y-11915952D01*
X32724619Y-12068333D02*
X32343666Y-12068333D01*
X32800809Y-12296904D02*
X32534142Y-11496904D01*
X32267476Y-12296904D01*
X32077000Y-11496904D02*
X31886523Y-12296904D01*
X31734142Y-11725476D01*
X31581761Y-12296904D01*
X31391285Y-11496904D01*
X21878809Y-37277857D02*
X21764523Y-37315952D01*
X21726428Y-37354047D01*
X21688333Y-37430238D01*
X21688333Y-37544523D01*
X21726428Y-37620714D01*
X21764523Y-37658809D01*
X21840714Y-37696904D01*
X22145476Y-37696904D01*
X22145476Y-36896904D01*
X21878809Y-36896904D01*
X21802619Y-36935000D01*
X21764523Y-36973095D01*
X21726428Y-37049285D01*
X21726428Y-37125476D01*
X21764523Y-37201666D01*
X21802619Y-37239761D01*
X21878809Y-37277857D01*
X22145476Y-37277857D01*
X21002619Y-37163571D02*
X21002619Y-37696904D01*
X21193095Y-36858809D02*
X21383571Y-37430238D01*
X20888333Y-37430238D01*
X33086523Y-14075000D02*
X33162714Y-14036904D01*
X33277000Y-14036904D01*
X33391285Y-14075000D01*
X33467476Y-14151190D01*
X33505571Y-14227380D01*
X33543666Y-14379761D01*
X33543666Y-14494047D01*
X33505571Y-14646428D01*
X33467476Y-14722619D01*
X33391285Y-14798809D01*
X33277000Y-14836904D01*
X33200809Y-14836904D01*
X33086523Y-14798809D01*
X33048428Y-14760714D01*
X33048428Y-14494047D01*
X33200809Y-14494047D01*
X32705571Y-14836904D02*
X32705571Y-14036904D01*
X32248428Y-14836904D01*
X32248428Y-14036904D01*
X31867476Y-14836904D02*
X31867476Y-14036904D01*
X31677000Y-14036904D01*
X31562714Y-14075000D01*
X31486523Y-14151190D01*
X31448428Y-14227380D01*
X31410333Y-14379761D01*
X31410333Y-14494047D01*
X31448428Y-14646428D01*
X31486523Y-14722619D01*
X31562714Y-14798809D01*
X31677000Y-14836904D01*
X31867476Y-14836904D01*
X22145476Y-32616904D02*
X22145476Y-31816904D01*
X21955000Y-31816904D01*
X21840714Y-31855000D01*
X21764523Y-31931190D01*
X21726428Y-32007380D01*
X21688333Y-32159761D01*
X21688333Y-32274047D01*
X21726428Y-32426428D01*
X21764523Y-32502619D01*
X21840714Y-32578809D01*
X21955000Y-32616904D01*
X22145476Y-32616904D01*
X21421666Y-31816904D02*
X20888333Y-31816904D01*
X21231190Y-32616904D01*
X22145476Y-14836904D02*
X22145476Y-14036904D01*
X21955000Y-14036904D01*
X21840714Y-14075000D01*
X21764523Y-14151190D01*
X21726428Y-14227380D01*
X21688333Y-14379761D01*
X21688333Y-14494047D01*
X21726428Y-14646428D01*
X21764523Y-14722619D01*
X21840714Y-14798809D01*
X21955000Y-14836904D01*
X22145476Y-14836904D01*
X21383571Y-14113095D02*
X21345476Y-14075000D01*
X21269285Y-14036904D01*
X21078809Y-14036904D01*
X21002619Y-14075000D01*
X20964523Y-14113095D01*
X20926428Y-14189285D01*
X20926428Y-14265476D01*
X20964523Y-14379761D01*
X21421666Y-14836904D01*
X20926428Y-14836904D01*
X33543666Y-19116904D02*
X33277000Y-19916904D01*
X33010333Y-19116904D01*
X32286523Y-19840714D02*
X32324619Y-19878809D01*
X32438904Y-19916904D01*
X32515095Y-19916904D01*
X32629380Y-19878809D01*
X32705571Y-19802619D01*
X32743666Y-19726428D01*
X32781761Y-19574047D01*
X32781761Y-19459761D01*
X32743666Y-19307380D01*
X32705571Y-19231190D01*
X32629380Y-19155000D01*
X32515095Y-19116904D01*
X32438904Y-19116904D01*
X32324619Y-19155000D01*
X32286523Y-19193095D01*
X31486523Y-19840714D02*
X31524619Y-19878809D01*
X31638904Y-19916904D01*
X31715095Y-19916904D01*
X31829380Y-19878809D01*
X31905571Y-19802619D01*
X31943666Y-19726428D01*
X31981761Y-19574047D01*
X31981761Y-19459761D01*
X31943666Y-19307380D01*
X31905571Y-19231190D01*
X31829380Y-19155000D01*
X31715095Y-19116904D01*
X31638904Y-19116904D01*
X31524619Y-19155000D01*
X31486523Y-19193095D01*
X32800809Y-32197857D02*
X32686523Y-32235952D01*
X32648428Y-32274047D01*
X32610333Y-32350238D01*
X32610333Y-32464523D01*
X32648428Y-32540714D01*
X32686523Y-32578809D01*
X32762714Y-32616904D01*
X33067476Y-32616904D01*
X33067476Y-31816904D01*
X32800809Y-31816904D01*
X32724619Y-31855000D01*
X32686523Y-31893095D01*
X32648428Y-31969285D01*
X32648428Y-32045476D01*
X32686523Y-32121666D01*
X32724619Y-32159761D01*
X32800809Y-32197857D01*
X33067476Y-32197857D01*
X31848428Y-32616904D02*
X32305571Y-32616904D01*
X32077000Y-32616904D02*
X32077000Y-31816904D01*
X32153190Y-31931190D01*
X32229380Y-32007380D01*
X32305571Y-32045476D01*
X25634604Y-11496904D02*
X25177461Y-11496904D01*
X25406032Y-12296904D02*
X25406032Y-11496904D01*
X24986985Y-11496904D02*
X24453651Y-12296904D01*
X24453651Y-11496904D02*
X24986985Y-12296904D01*
X23996508Y-11496904D02*
X23920318Y-11496904D01*
X23844128Y-11535000D01*
X23806032Y-11573095D01*
X23767937Y-11649285D01*
X23729842Y-11801666D01*
X23729842Y-11992142D01*
X23767937Y-12144523D01*
X23806032Y-12220714D01*
X23844128Y-12258809D01*
X23920318Y-12296904D01*
X23996508Y-12296904D01*
X24072699Y-12258809D01*
X24110794Y-12220714D01*
X24148889Y-12144523D01*
X24186985Y-11992142D01*
X24186985Y-11801666D01*
X24148889Y-11649285D01*
X24110794Y-11573095D01*
X24072699Y-11535000D01*
X23996508Y-11496904D01*
X22815556Y-11458809D02*
X23501270Y-12487380D01*
X22548889Y-12296904D02*
X22548889Y-11496904D01*
X22358413Y-11496904D01*
X22244128Y-11535000D01*
X22167937Y-11611190D01*
X22129842Y-11687380D01*
X22091747Y-11839761D01*
X22091747Y-11954047D01*
X22129842Y-12106428D01*
X22167937Y-12182619D01*
X22244128Y-12258809D01*
X22358413Y-12296904D01*
X22548889Y-12296904D01*
X21825080Y-11496904D02*
X21329842Y-11496904D01*
X21596508Y-11801666D01*
X21482223Y-11801666D01*
X21406032Y-11839761D01*
X21367937Y-11877857D01*
X21329842Y-11954047D01*
X21329842Y-12144523D01*
X21367937Y-12220714D01*
X21406032Y-12258809D01*
X21482223Y-12296904D01*
X21710794Y-12296904D01*
X21786985Y-12258809D01*
X21825080Y-12220714D01*
X22145476Y-22456904D02*
X22145476Y-21656904D01*
X21955000Y-21656904D01*
X21840714Y-21695000D01*
X21764523Y-21771190D01*
X21726428Y-21847380D01*
X21688333Y-21999761D01*
X21688333Y-22114047D01*
X21726428Y-22266428D01*
X21764523Y-22342619D01*
X21840714Y-22418809D01*
X21955000Y-22456904D01*
X22145476Y-22456904D01*
X20926428Y-22456904D02*
X21383571Y-22456904D01*
X21155000Y-22456904D02*
X21155000Y-21656904D01*
X21231190Y-21771190D01*
X21307380Y-21847380D01*
X21383571Y-21885476D01*
%TO.C,D10*%
X191968380Y-26690714D02*
X190968380Y-26690714D01*
X190968380Y-26928809D01*
X191016000Y-27071666D01*
X191111238Y-27166904D01*
X191206476Y-27214523D01*
X191396952Y-27262142D01*
X191539809Y-27262142D01*
X191730285Y-27214523D01*
X191825523Y-27166904D01*
X191920761Y-27071666D01*
X191968380Y-26928809D01*
X191968380Y-26690714D01*
X191968380Y-28214523D02*
X191968380Y-27643095D01*
X191968380Y-27928809D02*
X190968380Y-27928809D01*
X191111238Y-27833571D01*
X191206476Y-27738333D01*
X191254095Y-27643095D01*
X190968380Y-28833571D02*
X190968380Y-28928809D01*
X191016000Y-29024047D01*
X191063619Y-29071666D01*
X191158857Y-29119285D01*
X191349333Y-29166904D01*
X191587428Y-29166904D01*
X191777904Y-29119285D01*
X191873142Y-29071666D01*
X191920761Y-29024047D01*
X191968380Y-28928809D01*
X191968380Y-28833571D01*
X191920761Y-28738333D01*
X191873142Y-28690714D01*
X191777904Y-28643095D01*
X191587428Y-28595476D01*
X191349333Y-28595476D01*
X191158857Y-28643095D01*
X191063619Y-28690714D01*
X191016000Y-28738333D01*
X190968380Y-28833571D01*
%TO.C,D7*%
X77968380Y-27166904D02*
X76968380Y-27166904D01*
X76968380Y-27405000D01*
X77016000Y-27547857D01*
X77111238Y-27643095D01*
X77206476Y-27690714D01*
X77396952Y-27738333D01*
X77539809Y-27738333D01*
X77730285Y-27690714D01*
X77825523Y-27643095D01*
X77920761Y-27547857D01*
X77968380Y-27405000D01*
X77968380Y-27166904D01*
X76968380Y-28071666D02*
X76968380Y-28738333D01*
X77968380Y-28309761D01*
%TO.C,D1*%
X37968380Y-23166904D02*
X36968380Y-23166904D01*
X36968380Y-23405000D01*
X37016000Y-23547857D01*
X37111238Y-23643095D01*
X37206476Y-23690714D01*
X37396952Y-23738333D01*
X37539809Y-23738333D01*
X37730285Y-23690714D01*
X37825523Y-23643095D01*
X37920761Y-23547857D01*
X37968380Y-23405000D01*
X37968380Y-23166904D01*
X37968380Y-24690714D02*
X37968380Y-24119285D01*
X37968380Y-24405000D02*
X36968380Y-24405000D01*
X37111238Y-24309761D01*
X37206476Y-24214523D01*
X37254095Y-24119285D01*
%TO.C,D4*%
X148968380Y-23166904D02*
X147968380Y-23166904D01*
X147968380Y-23405000D01*
X148016000Y-23547857D01*
X148111238Y-23643095D01*
X148206476Y-23690714D01*
X148396952Y-23738333D01*
X148539809Y-23738333D01*
X148730285Y-23690714D01*
X148825523Y-23643095D01*
X148920761Y-23547857D01*
X148968380Y-23405000D01*
X148968380Y-23166904D01*
X148301714Y-24595476D02*
X148968380Y-24595476D01*
X147920761Y-24357380D02*
X148635047Y-24119285D01*
X148635047Y-24738333D01*
%TO.C,D11*%
X43968380Y-58690714D02*
X42968380Y-58690714D01*
X42968380Y-58928809D01*
X43016000Y-59071666D01*
X43111238Y-59166904D01*
X43206476Y-59214523D01*
X43396952Y-59262142D01*
X43539809Y-59262142D01*
X43730285Y-59214523D01*
X43825523Y-59166904D01*
X43920761Y-59071666D01*
X43968380Y-58928809D01*
X43968380Y-58690714D01*
X43968380Y-60214523D02*
X43968380Y-59643095D01*
X43968380Y-59928809D02*
X42968380Y-59928809D01*
X43111238Y-59833571D01*
X43206476Y-59738333D01*
X43254095Y-59643095D01*
X43968380Y-61166904D02*
X43968380Y-60595476D01*
X43968380Y-60881190D02*
X42968380Y-60881190D01*
X43111238Y-60785952D01*
X43206476Y-60690714D01*
X43254095Y-60595476D01*
%TO.C,D5*%
X186968380Y-23166904D02*
X185968380Y-23166904D01*
X185968380Y-23405000D01*
X186016000Y-23547857D01*
X186111238Y-23643095D01*
X186206476Y-23690714D01*
X186396952Y-23738333D01*
X186539809Y-23738333D01*
X186730285Y-23690714D01*
X186825523Y-23643095D01*
X186920761Y-23547857D01*
X186968380Y-23405000D01*
X186968380Y-23166904D01*
X185968380Y-24643095D02*
X185968380Y-24166904D01*
X186444571Y-24119285D01*
X186396952Y-24166904D01*
X186349333Y-24262142D01*
X186349333Y-24500238D01*
X186396952Y-24595476D01*
X186444571Y-24643095D01*
X186539809Y-24690714D01*
X186777904Y-24690714D01*
X186873142Y-24643095D01*
X186920761Y-24595476D01*
X186968380Y-24500238D01*
X186968380Y-24262142D01*
X186920761Y-24166904D01*
X186873142Y-24119285D01*
%TO.C,D2*%
X72968380Y-23166904D02*
X71968380Y-23166904D01*
X71968380Y-23405000D01*
X72016000Y-23547857D01*
X72111238Y-23643095D01*
X72206476Y-23690714D01*
X72396952Y-23738333D01*
X72539809Y-23738333D01*
X72730285Y-23690714D01*
X72825523Y-23643095D01*
X72920761Y-23547857D01*
X72968380Y-23405000D01*
X72968380Y-23166904D01*
X72063619Y-24119285D02*
X72016000Y-24166904D01*
X71968380Y-24262142D01*
X71968380Y-24500238D01*
X72016000Y-24595476D01*
X72063619Y-24643095D01*
X72158857Y-24690714D01*
X72254095Y-24690714D01*
X72396952Y-24643095D01*
X72968380Y-24071666D01*
X72968380Y-24690714D01*
%TO.C,D6*%
X42968380Y-27166904D02*
X41968380Y-27166904D01*
X41968380Y-27405000D01*
X42016000Y-27547857D01*
X42111238Y-27643095D01*
X42206476Y-27690714D01*
X42396952Y-27738333D01*
X42539809Y-27738333D01*
X42730285Y-27690714D01*
X42825523Y-27643095D01*
X42920761Y-27547857D01*
X42968380Y-27405000D01*
X42968380Y-27166904D01*
X41968380Y-28595476D02*
X41968380Y-28405000D01*
X42016000Y-28309761D01*
X42063619Y-28262142D01*
X42206476Y-28166904D01*
X42396952Y-28119285D01*
X42777904Y-28119285D01*
X42873142Y-28166904D01*
X42920761Y-28214523D01*
X42968380Y-28309761D01*
X42968380Y-28500238D01*
X42920761Y-28595476D01*
X42873142Y-28643095D01*
X42777904Y-28690714D01*
X42539809Y-28690714D01*
X42444571Y-28643095D01*
X42396952Y-28595476D01*
X42349333Y-28500238D01*
X42349333Y-28309761D01*
X42396952Y-28214523D01*
X42444571Y-28166904D01*
X42539809Y-28119285D01*
%TO.C,D17*%
X172968380Y-62690714D02*
X171968380Y-62690714D01*
X171968380Y-62928809D01*
X172016000Y-63071666D01*
X172111238Y-63166904D01*
X172206476Y-63214523D01*
X172396952Y-63262142D01*
X172539809Y-63262142D01*
X172730285Y-63214523D01*
X172825523Y-63166904D01*
X172920761Y-63071666D01*
X172968380Y-62928809D01*
X172968380Y-62690714D01*
X172968380Y-64214523D02*
X172968380Y-63643095D01*
X172968380Y-63928809D02*
X171968380Y-63928809D01*
X172111238Y-63833571D01*
X172206476Y-63738333D01*
X172254095Y-63643095D01*
X171968380Y-64547857D02*
X171968380Y-65214523D01*
X172968380Y-64785952D01*
%TO.C,D14*%
X138968380Y-58690714D02*
X137968380Y-58690714D01*
X137968380Y-58928809D01*
X138016000Y-59071666D01*
X138111238Y-59166904D01*
X138206476Y-59214523D01*
X138396952Y-59262142D01*
X138539809Y-59262142D01*
X138730285Y-59214523D01*
X138825523Y-59166904D01*
X138920761Y-59071666D01*
X138968380Y-58928809D01*
X138968380Y-58690714D01*
X138968380Y-60214523D02*
X138968380Y-59643095D01*
X138968380Y-59928809D02*
X137968380Y-59928809D01*
X138111238Y-59833571D01*
X138206476Y-59738333D01*
X138254095Y-59643095D01*
X138301714Y-61071666D02*
X138968380Y-61071666D01*
X137920761Y-60833571D02*
X138635047Y-60595476D01*
X138635047Y-61214523D01*
%TO.C,D8*%
X116018380Y-27166904D02*
X115018380Y-27166904D01*
X115018380Y-27405000D01*
X115066000Y-27547857D01*
X115161238Y-27643095D01*
X115256476Y-27690714D01*
X115446952Y-27738333D01*
X115589809Y-27738333D01*
X115780285Y-27690714D01*
X115875523Y-27643095D01*
X115970761Y-27547857D01*
X116018380Y-27405000D01*
X116018380Y-27166904D01*
X115446952Y-28309761D02*
X115399333Y-28214523D01*
X115351714Y-28166904D01*
X115256476Y-28119285D01*
X115208857Y-28119285D01*
X115113619Y-28166904D01*
X115066000Y-28214523D01*
X115018380Y-28309761D01*
X115018380Y-28500238D01*
X115066000Y-28595476D01*
X115113619Y-28643095D01*
X115208857Y-28690714D01*
X115256476Y-28690714D01*
X115351714Y-28643095D01*
X115399333Y-28595476D01*
X115446952Y-28500238D01*
X115446952Y-28309761D01*
X115494571Y-28214523D01*
X115542190Y-28166904D01*
X115637428Y-28119285D01*
X115827904Y-28119285D01*
X115923142Y-28166904D01*
X115970761Y-28214523D01*
X116018380Y-28309761D01*
X116018380Y-28500238D01*
X115970761Y-28595476D01*
X115923142Y-28643095D01*
X115827904Y-28690714D01*
X115637428Y-28690714D01*
X115542190Y-28643095D01*
X115494571Y-28595476D01*
X115446952Y-28500238D01*
%TO.C,D9*%
X153968380Y-27166904D02*
X152968380Y-27166904D01*
X152968380Y-27405000D01*
X153016000Y-27547857D01*
X153111238Y-27643095D01*
X153206476Y-27690714D01*
X153396952Y-27738333D01*
X153539809Y-27738333D01*
X153730285Y-27690714D01*
X153825523Y-27643095D01*
X153920761Y-27547857D01*
X153968380Y-27405000D01*
X153968380Y-27166904D01*
X153968380Y-28214523D02*
X153968380Y-28405000D01*
X153920761Y-28500238D01*
X153873142Y-28547857D01*
X153730285Y-28643095D01*
X153539809Y-28690714D01*
X153158857Y-28690714D01*
X153063619Y-28643095D01*
X153016000Y-28595476D01*
X152968380Y-28500238D01*
X152968380Y-28309761D01*
X153016000Y-28214523D01*
X153063619Y-28166904D01*
X153158857Y-28119285D01*
X153396952Y-28119285D01*
X153492190Y-28166904D01*
X153539809Y-28214523D01*
X153587428Y-28309761D01*
X153587428Y-28500238D01*
X153539809Y-28595476D01*
X153492190Y-28643095D01*
X153396952Y-28690714D01*
%TO.C,D15*%
X177968380Y-58690714D02*
X176968380Y-58690714D01*
X176968380Y-58928809D01*
X177016000Y-59071666D01*
X177111238Y-59166904D01*
X177206476Y-59214523D01*
X177396952Y-59262142D01*
X177539809Y-59262142D01*
X177730285Y-59214523D01*
X177825523Y-59166904D01*
X177920761Y-59071666D01*
X177968380Y-58928809D01*
X177968380Y-58690714D01*
X177968380Y-60214523D02*
X177968380Y-59643095D01*
X177968380Y-59928809D02*
X176968380Y-59928809D01*
X177111238Y-59833571D01*
X177206476Y-59738333D01*
X177254095Y-59643095D01*
X176968380Y-61119285D02*
X176968380Y-60643095D01*
X177444571Y-60595476D01*
X177396952Y-60643095D01*
X177349333Y-60738333D01*
X177349333Y-60976428D01*
X177396952Y-61071666D01*
X177444571Y-61119285D01*
X177539809Y-61166904D01*
X177777904Y-61166904D01*
X177873142Y-61119285D01*
X177920761Y-61071666D01*
X177968380Y-60976428D01*
X177968380Y-60738333D01*
X177920761Y-60643095D01*
X177873142Y-60595476D01*
%TO.C,D12*%
X81968380Y-58690714D02*
X80968380Y-58690714D01*
X80968380Y-58928809D01*
X81016000Y-59071666D01*
X81111238Y-59166904D01*
X81206476Y-59214523D01*
X81396952Y-59262142D01*
X81539809Y-59262142D01*
X81730285Y-59214523D01*
X81825523Y-59166904D01*
X81920761Y-59071666D01*
X81968380Y-58928809D01*
X81968380Y-58690714D01*
X81968380Y-60214523D02*
X81968380Y-59643095D01*
X81968380Y-59928809D02*
X80968380Y-59928809D01*
X81111238Y-59833571D01*
X81206476Y-59738333D01*
X81254095Y-59643095D01*
X81063619Y-60595476D02*
X81016000Y-60643095D01*
X80968380Y-60738333D01*
X80968380Y-60976428D01*
X81016000Y-61071666D01*
X81063619Y-61119285D01*
X81158857Y-61166904D01*
X81254095Y-61166904D01*
X81396952Y-61119285D01*
X81968380Y-60547857D01*
X81968380Y-61166904D01*
%TO.C,D13*%
X100968380Y-58690714D02*
X99968380Y-58690714D01*
X99968380Y-58928809D01*
X100016000Y-59071666D01*
X100111238Y-59166904D01*
X100206476Y-59214523D01*
X100396952Y-59262142D01*
X100539809Y-59262142D01*
X100730285Y-59214523D01*
X100825523Y-59166904D01*
X100920761Y-59071666D01*
X100968380Y-58928809D01*
X100968380Y-58690714D01*
X100968380Y-60214523D02*
X100968380Y-59643095D01*
X100968380Y-59928809D02*
X99968380Y-59928809D01*
X100111238Y-59833571D01*
X100206476Y-59738333D01*
X100254095Y-59643095D01*
X99968380Y-60547857D02*
X99968380Y-61166904D01*
X100349333Y-60833571D01*
X100349333Y-60976428D01*
X100396952Y-61071666D01*
X100444571Y-61119285D01*
X100539809Y-61166904D01*
X100777904Y-61166904D01*
X100873142Y-61119285D01*
X100920761Y-61071666D01*
X100968380Y-60976428D01*
X100968380Y-60690714D01*
X100920761Y-60595476D01*
X100873142Y-60547857D01*
%TO.C,D3*%
X110968380Y-23166904D02*
X109968380Y-23166904D01*
X109968380Y-23405000D01*
X110016000Y-23547857D01*
X110111238Y-23643095D01*
X110206476Y-23690714D01*
X110396952Y-23738333D01*
X110539809Y-23738333D01*
X110730285Y-23690714D01*
X110825523Y-23643095D01*
X110920761Y-23547857D01*
X110968380Y-23405000D01*
X110968380Y-23166904D01*
X109968380Y-24071666D02*
X109968380Y-24690714D01*
X110349333Y-24357380D01*
X110349333Y-24500238D01*
X110396952Y-24595476D01*
X110444571Y-24643095D01*
X110539809Y-24690714D01*
X110777904Y-24690714D01*
X110873142Y-24643095D01*
X110920761Y-24595476D01*
X110968380Y-24500238D01*
X110968380Y-24214523D01*
X110920761Y-24119285D01*
X110873142Y-24071666D01*
%TO.C,D16*%
X56968380Y-62690714D02*
X55968380Y-62690714D01*
X55968380Y-62928809D01*
X56016000Y-63071666D01*
X56111238Y-63166904D01*
X56206476Y-63214523D01*
X56396952Y-63262142D01*
X56539809Y-63262142D01*
X56730285Y-63214523D01*
X56825523Y-63166904D01*
X56920761Y-63071666D01*
X56968380Y-62928809D01*
X56968380Y-62690714D01*
X56968380Y-64214523D02*
X56968380Y-63643095D01*
X56968380Y-63928809D02*
X55968380Y-63928809D01*
X56111238Y-63833571D01*
X56206476Y-63738333D01*
X56254095Y-63643095D01*
X55968380Y-65071666D02*
X55968380Y-64881190D01*
X56016000Y-64785952D01*
X56063619Y-64738333D01*
X56206476Y-64643095D01*
X56396952Y-64595476D01*
X56777904Y-64595476D01*
X56873142Y-64643095D01*
X56920761Y-64690714D01*
X56968380Y-64785952D01*
X56968380Y-64976428D01*
X56920761Y-65071666D01*
X56873142Y-65119285D01*
X56777904Y-65166904D01*
X56539809Y-65166904D01*
X56444571Y-65119285D01*
X56396952Y-65071666D01*
X56349333Y-64976428D01*
X56349333Y-64785952D01*
X56396952Y-64690714D01*
X56444571Y-64643095D01*
X56539809Y-64595476D01*
D11*
%TO.C,U1*%
X35906000Y-41145000D02*
X35906000Y-8125000D01*
X18126000Y-8125000D02*
X18126000Y-41145000D01*
X18126000Y-41145000D02*
X35906000Y-41145000D01*
X35906000Y-8125000D02*
X18126000Y-8125000D01*
X20666000Y-10665000D02*
X20666000Y-13205000D01*
X20666000Y-13205000D02*
X18126000Y-13205000D01*
X20666000Y-10665000D02*
X18126000Y-10665000D01*
D10*
X32860635Y-17154030D02*
X32860635Y-17354030D01*
X32860635Y-17354030D02*
X32960635Y-17354030D01*
X32960635Y-17354030D02*
X32960635Y-17154030D01*
X32960635Y-17154030D02*
X32860635Y-17154030D01*
G36*
X32960635Y-17354030D02*
G01*
X32860635Y-17354030D01*
X32860635Y-17154030D01*
X32960635Y-17154030D01*
X32960635Y-17354030D01*
G37*
X32960635Y-17354030D02*
X32860635Y-17354030D01*
X32860635Y-17154030D01*
X32960635Y-17154030D01*
X32960635Y-17354030D01*
X33260635Y-16554030D02*
X33260635Y-17354030D01*
X33260635Y-17354030D02*
X33360635Y-17354030D01*
X33360635Y-17354030D02*
X33360635Y-16554030D01*
X33360635Y-16554030D02*
X33260635Y-16554030D01*
G36*
X33360635Y-17354030D02*
G01*
X33260635Y-17354030D01*
X33260635Y-16554030D01*
X33360635Y-16554030D01*
X33360635Y-17354030D01*
G37*
X33360635Y-17354030D02*
X33260635Y-17354030D01*
X33260635Y-16554030D01*
X33360635Y-16554030D01*
X33360635Y-17354030D01*
X33060635Y-16954030D02*
X33060635Y-17054030D01*
X33060635Y-17054030D02*
X33160635Y-17054030D01*
X33160635Y-17054030D02*
X33160635Y-16954030D01*
X33160635Y-16954030D02*
X33060635Y-16954030D01*
G36*
X33160635Y-17054030D02*
G01*
X33060635Y-17054030D01*
X33060635Y-16954030D01*
X33160635Y-16954030D01*
X33160635Y-17054030D01*
G37*
X33160635Y-17054030D02*
X33060635Y-17054030D01*
X33060635Y-16954030D01*
X33160635Y-16954030D01*
X33160635Y-17054030D01*
X32860635Y-16554030D02*
X32860635Y-16854030D01*
X32860635Y-16854030D02*
X32960635Y-16854030D01*
X32960635Y-16854030D02*
X32960635Y-16554030D01*
X32960635Y-16554030D02*
X32860635Y-16554030D01*
G36*
X32960635Y-16854030D02*
G01*
X32860635Y-16854030D01*
X32860635Y-16554030D01*
X32960635Y-16554030D01*
X32960635Y-16854030D01*
G37*
X32960635Y-16854030D02*
X32860635Y-16854030D01*
X32860635Y-16554030D01*
X32960635Y-16554030D01*
X32960635Y-16854030D01*
X32860635Y-16554030D02*
X32860635Y-16654030D01*
X32860635Y-16654030D02*
X33360635Y-16654030D01*
X33360635Y-16654030D02*
X33360635Y-16554030D01*
X33360635Y-16554030D02*
X32860635Y-16554030D01*
G36*
X33360635Y-16654030D02*
G01*
X32860635Y-16654030D01*
X32860635Y-16554030D01*
X33360635Y-16554030D01*
X33360635Y-16654030D01*
G37*
X33360635Y-16654030D02*
X32860635Y-16654030D01*
X32860635Y-16554030D01*
X33360635Y-16554030D01*
X33360635Y-16654030D01*
D12*
%TO.C,D10*%
X190596000Y-27145000D02*
X189666000Y-27145000D01*
X190596000Y-27145000D02*
X190596000Y-29305000D01*
X187436000Y-27145000D02*
X187436000Y-28605000D01*
X187436000Y-27145000D02*
X188366000Y-27145000D01*
%TO.C,D7*%
X73436000Y-27145000D02*
X74366000Y-27145000D01*
X76596000Y-27145000D02*
X75666000Y-27145000D01*
X76596000Y-27145000D02*
X76596000Y-29305000D01*
X73436000Y-27145000D02*
X73436000Y-28605000D01*
%TO.C,D1*%
X41596000Y-24665000D02*
X41596000Y-23205000D01*
X38436000Y-24665000D02*
X39366000Y-24665000D01*
X41596000Y-24665000D02*
X40666000Y-24665000D01*
X38436000Y-24665000D02*
X38436000Y-22505000D01*
%TO.C,D4*%
X152596000Y-24665000D02*
X151666000Y-24665000D01*
X149436000Y-24665000D02*
X150366000Y-24665000D01*
X149436000Y-24665000D02*
X149436000Y-22505000D01*
X152596000Y-24665000D02*
X152596000Y-23205000D01*
%TO.C,D11*%
X47596000Y-60665000D02*
X46666000Y-60665000D01*
X44436000Y-60665000D02*
X45366000Y-60665000D01*
X44436000Y-60665000D02*
X44436000Y-58505000D01*
X47596000Y-60665000D02*
X47596000Y-59205000D01*
%TO.C,D5*%
X187436000Y-24665000D02*
X188366000Y-24665000D01*
X187436000Y-24665000D02*
X187436000Y-22505000D01*
X190596000Y-24665000D02*
X190596000Y-23205000D01*
X190596000Y-24665000D02*
X189666000Y-24665000D01*
%TO.C,D2*%
X73436000Y-24665000D02*
X74366000Y-24665000D01*
X73436000Y-24665000D02*
X73436000Y-22505000D01*
X76596000Y-24665000D02*
X75666000Y-24665000D01*
X76596000Y-24665000D02*
X76596000Y-23205000D01*
%TO.C,D6*%
X38436000Y-27145000D02*
X39366000Y-27145000D01*
X41596000Y-27145000D02*
X40666000Y-27145000D01*
X38436000Y-27145000D02*
X38436000Y-28605000D01*
X41596000Y-27145000D02*
X41596000Y-29305000D01*
%TO.C,D17*%
X171596000Y-63145000D02*
X170666000Y-63145000D01*
X168436000Y-63145000D02*
X168436000Y-64605000D01*
X171596000Y-63145000D02*
X171596000Y-65305000D01*
X168436000Y-63145000D02*
X169366000Y-63145000D01*
%TO.C,D14*%
X142596000Y-60665000D02*
X142596000Y-59205000D01*
X139436000Y-60665000D02*
X140366000Y-60665000D01*
X139436000Y-60665000D02*
X139436000Y-58505000D01*
X142596000Y-60665000D02*
X141666000Y-60665000D01*
%TO.C,D8*%
X111486000Y-27145000D02*
X112416000Y-27145000D01*
X114646000Y-27145000D02*
X114646000Y-29305000D01*
X114646000Y-27145000D02*
X113716000Y-27145000D01*
X111486000Y-27145000D02*
X111486000Y-28605000D01*
%TO.C,D9*%
X149436000Y-27145000D02*
X149436000Y-28605000D01*
X149436000Y-27145000D02*
X150366000Y-27145000D01*
X152596000Y-27145000D02*
X151666000Y-27145000D01*
X152596000Y-27145000D02*
X152596000Y-29305000D01*
%TO.C,D15*%
X178436000Y-60665000D02*
X178436000Y-58505000D01*
X181596000Y-60665000D02*
X181596000Y-59205000D01*
X178436000Y-60665000D02*
X179366000Y-60665000D01*
X181596000Y-60665000D02*
X180666000Y-60665000D01*
%TO.C,D12*%
X85596000Y-60665000D02*
X84666000Y-60665000D01*
X85596000Y-60665000D02*
X85596000Y-59205000D01*
X82436000Y-60665000D02*
X83366000Y-60665000D01*
X82436000Y-60665000D02*
X82436000Y-58505000D01*
%TO.C,D13*%
X104596000Y-60665000D02*
X103666000Y-60665000D01*
X101436000Y-60665000D02*
X101436000Y-58505000D01*
X104596000Y-60665000D02*
X104596000Y-59205000D01*
X101436000Y-60665000D02*
X102366000Y-60665000D01*
%TO.C,D3*%
X111436000Y-24665000D02*
X111436000Y-22505000D01*
X111436000Y-24665000D02*
X112366000Y-24665000D01*
X114596000Y-24665000D02*
X113666000Y-24665000D01*
X114596000Y-24665000D02*
X114596000Y-23205000D01*
%TO.C,D16*%
X52436000Y-63145000D02*
X52436000Y-64605000D01*
X52436000Y-63145000D02*
X53366000Y-63145000D01*
X55596000Y-63145000D02*
X54666000Y-63145000D01*
X55596000Y-63145000D02*
X55596000Y-65305000D01*
%TD*%
D13*
%TO.C,U1*%
X19396000Y-11935000D03*
D14*
X19396000Y-14475000D03*
X19396000Y-17015000D03*
X19396000Y-19555000D03*
X19396000Y-22095000D03*
X19396000Y-24635000D03*
X19396000Y-27175000D03*
X19396000Y-29715000D03*
X19396000Y-32255000D03*
X19396000Y-34795000D03*
X19396000Y-37335000D03*
X19396000Y-39875000D03*
X34636000Y-39875000D03*
X34636000Y-37335000D03*
X34636000Y-34795000D03*
X34636000Y-32255000D03*
X34636000Y-29715000D03*
X34636000Y-27175000D03*
X34636000Y-24635000D03*
X34636000Y-22095000D03*
X34636000Y-19555000D03*
X34636000Y-17015000D03*
X34636000Y-14475000D03*
X34636000Y-11935000D03*
%TD*%
M02*
