M48
; DRILL file {KiCad (6.0.0)} date Sat Jan  8 09:02:25 2022
; FORMAT={-:-/ absolute / metric / decimal}
; #@! TF.CreationDate,2022-01-08T09:02:25-05:00
; #@! TF.GenerationSoftware,Kicad,Pcbnew,(6.0.0)
; #@! TF.FileFunction,MixedPlating,1,2
FMAT,2
METRIC
; #@! TA.AperFunction,Plated,PTH,ViaDrill
T1C0.400
; #@! TA.AperFunction,Plated,PTH,ComponentDrill
T2C1.092
; #@! TA.AperFunction,Plated,PTH,ComponentDrill
T3C1.500
; #@! TA.AperFunction,NonPlated,NPTH,ComponentDrill
T4C1.700
; #@! TA.AperFunction,NonPlated,NPTH,ComponentDrill
T5C2.200
; #@! TA.AperFunction,NonPlated,NPTH,ComponentDrill
T6C3.050
; #@! TA.AperFunction,NonPlated,NPTH,ComponentDrill
T7C4.000
%
G90
G05
T1
X45.016Y-19.905
T2
X19.396Y-11.935
X19.396Y-14.475
X19.396Y-17.015
X19.396Y-19.555
X19.396Y-22.095
X19.396Y-24.635
X19.396Y-27.175
X19.396Y-29.715
X19.396Y-32.255
X19.396Y-34.795
X19.396Y-37.335
X19.396Y-39.875
X34.636Y-11.935
X34.636Y-14.475
X34.636Y-17.015
X34.636Y-19.555
X34.636Y-22.095
X34.636Y-24.635
X34.636Y-27.175
X34.636Y-29.715
X34.636Y-32.255
X34.636Y-34.795
X34.636Y-37.335
X34.636Y-39.875
T3
X23.241Y-13.97
X23.241Y-33.02
X28.003Y-52.07
X29.591Y-11.43
X29.591Y-30.48
X32.766Y-71.12
X34.353Y-49.53
X39.116Y-68.58
X42.291Y-13.97
X42.291Y-33.02
X48.641Y-11.43
X48.641Y-30.48
X51.816Y-52.07
X58.166Y-49.53
X61.341Y-13.97
X61.341Y-33.02
X67.691Y-11.43
X67.691Y-30.48
X70.866Y-52.07
X77.216Y-49.53
X80.391Y-13.97
X80.391Y-33.02
X86.741Y-11.43
X86.741Y-30.48
X89.916Y-52.07
X96.266Y-49.53
X99.441Y-13.97
X99.441Y-33.02
X105.791Y-11.43
X105.791Y-30.48
X108.966Y-52.07
X108.966Y-71.12
X115.316Y-49.53
X115.316Y-68.58
X118.491Y-13.97
X118.491Y-33.02
X124.841Y-11.43
X124.841Y-30.48
X128.016Y-52.07
X134.366Y-49.53
X137.541Y-13.97
X137.541Y-33.02
X143.891Y-11.43
X143.891Y-30.48
X147.066Y-52.07
X153.416Y-49.53
X156.591Y-13.97
X156.591Y-33.02
X162.941Y-11.43
X162.941Y-30.48
X166.116Y-52.07
X172.466Y-49.53
X175.641Y-13.97
X175.641Y-33.02
X181.991Y-11.43
X181.991Y-30.48
X185.166Y-71.12
X189.928Y-52.07
X191.516Y-68.58
X194.691Y-13.97
X194.691Y-33.02
X196.278Y-49.53
X201.041Y-11.43
X201.041Y-30.48
T4
X21.971Y-16.51
X21.971Y-35.56
X26.733Y-54.61
X31.496Y-73.66
X32.131Y-16.51
X32.131Y-35.56
X36.893Y-54.61
X41.021Y-16.51
X41.021Y-35.56
X41.656Y-73.66
X50.546Y-54.61
X51.181Y-16.51
X51.181Y-35.56
X60.071Y-16.51
X60.071Y-35.56
X60.706Y-54.61
X69.596Y-54.61
X70.231Y-16.51
X70.231Y-35.56
X79.121Y-16.51
X79.121Y-35.56
X79.756Y-54.61
X88.646Y-54.61
X89.281Y-16.51
X89.281Y-35.56
X98.171Y-16.51
X98.171Y-35.56
X98.806Y-54.61
X107.696Y-54.61
X107.696Y-73.66
X108.331Y-16.51
X108.331Y-35.56
X117.221Y-16.51
X117.221Y-35.56
X117.856Y-54.61
X117.856Y-73.66
X126.746Y-54.61
X127.381Y-16.51
X127.381Y-35.56
X136.271Y-16.51
X136.271Y-35.56
X136.906Y-54.61
X145.796Y-54.61
X146.431Y-16.51
X146.431Y-35.56
X155.321Y-16.51
X155.321Y-35.56
X155.956Y-54.61
X164.846Y-54.61
X165.481Y-16.51
X165.481Y-35.56
X174.371Y-16.51
X174.371Y-35.56
X175.006Y-54.61
X183.896Y-73.66
X184.531Y-16.51
X184.531Y-35.56
X188.659Y-54.61
X193.421Y-16.51
X193.421Y-35.56
X194.056Y-73.66
X198.819Y-54.61
X203.581Y-16.51
X203.581Y-35.56
T5
X24.828Y-73.343
X55.626Y-26.035
X169.926Y-26.035
X201.041Y-73.343
T6
X62.776Y-80.66
X162.776Y-80.66
T7
X27.051Y-16.51
X27.051Y-35.56
X31.813Y-54.61
X36.576Y-73.66
X46.101Y-16.51
X46.101Y-35.56
X55.626Y-54.61
X62.776Y-65.42
X65.151Y-16.51
X65.151Y-35.56
X74.676Y-54.61
X84.201Y-16.51
X84.201Y-35.56
X93.726Y-54.61
X103.251Y-16.51
X103.251Y-35.56
X112.776Y-54.61
X112.776Y-73.66
X122.301Y-16.51
X122.301Y-35.56
X131.826Y-54.61
X141.351Y-16.51
X141.351Y-35.56
X150.876Y-54.61
X160.401Y-16.51
X160.401Y-35.56
X162.776Y-65.42
X169.926Y-54.61
X179.451Y-16.51
X179.451Y-35.56
X188.976Y-73.66
X193.738Y-54.61
X198.501Y-16.51
X198.501Y-35.56
T0
M30
