%TF.GenerationSoftware,KiCad,Pcbnew,(6.0.0)*%
%TF.CreationDate,2022-01-08T09:02:27-05:00*%
%TF.ProjectId,iType,69547970-652e-46b6-9963-61645f706362,rev?*%
%TF.SameCoordinates,Original*%
%TF.FileFunction,Paste,Bot*%
%TF.FilePolarity,Positive*%
%FSLAX46Y46*%
G04 Gerber Fmt 4.6, Leading zero omitted, Abs format (unit mm)*
G04 Created by KiCad (PCBNEW (6.0.0)) date 2022-01-08 09:02:27*
%MOMM*%
%LPD*%
G01*
G04 APERTURE LIST*
%ADD10R,0.800000X0.900000*%
G04 APERTURE END LIST*
D10*
%TO.C,D10*%
X189966000Y-28905000D03*
X188066000Y-28905000D03*
X189016000Y-26905000D03*
%TD*%
%TO.C,D7*%
X75966000Y-28905000D03*
X74066000Y-28905000D03*
X75016000Y-26905000D03*
%TD*%
%TO.C,D1*%
X39066000Y-22905000D03*
X40966000Y-22905000D03*
X40016000Y-24905000D03*
%TD*%
%TO.C,D4*%
X150066000Y-22905000D03*
X151966000Y-22905000D03*
X151016000Y-24905000D03*
%TD*%
%TO.C,D11*%
X45066000Y-58905000D03*
X46966000Y-58905000D03*
X46016000Y-60905000D03*
%TD*%
%TO.C,D5*%
X188066000Y-22905000D03*
X189966000Y-22905000D03*
X189016000Y-24905000D03*
%TD*%
%TO.C,D2*%
X74066000Y-22905000D03*
X75966000Y-22905000D03*
X75016000Y-24905000D03*
%TD*%
%TO.C,D6*%
X40966000Y-28905000D03*
X39066000Y-28905000D03*
X40016000Y-26905000D03*
%TD*%
%TO.C,D17*%
X170966000Y-64905000D03*
X169066000Y-64905000D03*
X170016000Y-62905000D03*
%TD*%
%TO.C,D14*%
X140066000Y-58905000D03*
X141966000Y-58905000D03*
X141016000Y-60905000D03*
%TD*%
%TO.C,D8*%
X114016000Y-28905000D03*
X112116000Y-28905000D03*
X113066000Y-26905000D03*
%TD*%
%TO.C,D9*%
X151966000Y-28905000D03*
X150066000Y-28905000D03*
X151016000Y-26905000D03*
%TD*%
%TO.C,D15*%
X179066000Y-58905000D03*
X180966000Y-58905000D03*
X180016000Y-60905000D03*
%TD*%
%TO.C,D12*%
X83066000Y-58905000D03*
X84966000Y-58905000D03*
X84016000Y-60905000D03*
%TD*%
%TO.C,D13*%
X102066000Y-58905000D03*
X103966000Y-58905000D03*
X103016000Y-60905000D03*
%TD*%
%TO.C,D3*%
X112066000Y-22905000D03*
X113966000Y-22905000D03*
X113016000Y-24905000D03*
%TD*%
%TO.C,D16*%
X54966000Y-64905000D03*
X53066000Y-64905000D03*
X54016000Y-62905000D03*
%TD*%
M02*
