%TF.GenerationSoftware,KiCad,Pcbnew,(6.0.0)*%
%TF.CreationDate,2022-01-08T09:02:27-05:00*%
%TF.ProjectId,iType,69547970-652e-46b6-9963-61645f706362,rev?*%
%TF.SameCoordinates,Original*%
%TF.FileFunction,Legend,Top*%
%TF.FilePolarity,Positive*%
%FSLAX46Y46*%
G04 Gerber Fmt 4.6, Leading zero omitted, Abs format (unit mm)*
G04 Created by KiCad (PCBNEW (6.0.0)) date 2022-01-08 09:02:27*
%MOMM*%
%LPD*%
G01*
G04 APERTURE LIST*
%ADD10C,0.150000*%
%ADD11C,0.120000*%
%ADD12C,0.381000*%
%ADD13R,1.752600X1.752600*%
%ADD14C,1.752600*%
G04 APERTURE END LIST*
D10*
X21790285Y-82112380D02*
X21790285Y-81445714D01*
X21790285Y-81112380D02*
X21742666Y-81160000D01*
X21790285Y-81207619D01*
X21837904Y-81160000D01*
X21790285Y-81112380D01*
X21790285Y-81207619D01*
X22123619Y-81112380D02*
X22695047Y-81112380D01*
X22409333Y-82112380D02*
X22409333Y-81112380D01*
X22933142Y-81445714D02*
X23171238Y-82112380D01*
X23409333Y-81445714D02*
X23171238Y-82112380D01*
X23075999Y-82350476D01*
X23028380Y-82398095D01*
X22933142Y-82445714D01*
X23790285Y-81445714D02*
X23790285Y-82445714D01*
X23790285Y-81493333D02*
X23885523Y-81445714D01*
X24075999Y-81445714D01*
X24171238Y-81493333D01*
X24218857Y-81540952D01*
X24266476Y-81636190D01*
X24266476Y-81921904D01*
X24218857Y-82017142D01*
X24171238Y-82064761D01*
X24075999Y-82112380D01*
X23885523Y-82112380D01*
X23790285Y-82064761D01*
X25075999Y-82064761D02*
X24980761Y-82112380D01*
X24790285Y-82112380D01*
X24695047Y-82064761D01*
X24647428Y-81969523D01*
X24647428Y-81588571D01*
X24695047Y-81493333D01*
X24790285Y-81445714D01*
X24980761Y-81445714D01*
X25075999Y-81493333D01*
X25123619Y-81588571D01*
X25123619Y-81683809D01*
X24647428Y-81779047D01*
X26314095Y-82112380D02*
X26314095Y-81112380D01*
X26695047Y-81112380D01*
X26790285Y-81160000D01*
X26837904Y-81207619D01*
X26885523Y-81302857D01*
X26885523Y-81445714D01*
X26837904Y-81540952D01*
X26790285Y-81588571D01*
X26695047Y-81636190D01*
X26314095Y-81636190D01*
X27885523Y-82017142D02*
X27837904Y-82064761D01*
X27695047Y-82112380D01*
X27599809Y-82112380D01*
X27456952Y-82064761D01*
X27361714Y-81969523D01*
X27314095Y-81874285D01*
X27266476Y-81683809D01*
X27266476Y-81540952D01*
X27314095Y-81350476D01*
X27361714Y-81255238D01*
X27456952Y-81160000D01*
X27599809Y-81112380D01*
X27695047Y-81112380D01*
X27837904Y-81160000D01*
X27885523Y-81207619D01*
X28647428Y-81588571D02*
X28790285Y-81636190D01*
X28837904Y-81683809D01*
X28885523Y-81779047D01*
X28885523Y-81921904D01*
X28837904Y-82017142D01*
X28790285Y-82064761D01*
X28695047Y-82112380D01*
X28314095Y-82112380D01*
X28314095Y-81112380D01*
X28647428Y-81112380D01*
X28742666Y-81160000D01*
X28790285Y-81207619D01*
X28837904Y-81302857D01*
X28837904Y-81398095D01*
X28790285Y-81493333D01*
X28742666Y-81540952D01*
X28647428Y-81588571D01*
X28314095Y-81588571D01*
X30409333Y-81588571D02*
X30552190Y-81636190D01*
X30599809Y-81683809D01*
X30647428Y-81779047D01*
X30647428Y-81921904D01*
X30599809Y-82017142D01*
X30552190Y-82064761D01*
X30456952Y-82112380D01*
X30076000Y-82112380D01*
X30076000Y-81112380D01*
X30409333Y-81112380D01*
X30504571Y-81160000D01*
X30552190Y-81207619D01*
X30599809Y-81302857D01*
X30599809Y-81398095D01*
X30552190Y-81493333D01*
X30504571Y-81540952D01*
X30409333Y-81588571D01*
X30076000Y-81588571D01*
X30980761Y-81445714D02*
X31218857Y-82112380D01*
X31456952Y-81445714D02*
X31218857Y-82112380D01*
X31123619Y-82350476D01*
X31076000Y-82398095D01*
X30980761Y-82445714D01*
X32599809Y-82112380D02*
X32599809Y-81112380D01*
X32933142Y-81826666D01*
X33266476Y-81112380D01*
X33266476Y-82112380D01*
X34171238Y-82112380D02*
X34171238Y-81588571D01*
X34123619Y-81493333D01*
X34028380Y-81445714D01*
X33837904Y-81445714D01*
X33742666Y-81493333D01*
X34171238Y-82064761D02*
X34076000Y-82112380D01*
X33837904Y-82112380D01*
X33742666Y-82064761D01*
X33695047Y-81969523D01*
X33695047Y-81874285D01*
X33742666Y-81779047D01*
X33837904Y-81731428D01*
X34076000Y-81731428D01*
X34171238Y-81683809D01*
X34647428Y-82112380D02*
X34647428Y-81112380D01*
X34742666Y-81731428D02*
X35028380Y-82112380D01*
X35028380Y-81445714D02*
X34647428Y-81826666D01*
X35837904Y-82064761D02*
X35742666Y-82112380D01*
X35552190Y-82112380D01*
X35456952Y-82064761D01*
X35409333Y-81969523D01*
X35409333Y-81588571D01*
X35456952Y-81493333D01*
X35552190Y-81445714D01*
X35742666Y-81445714D01*
X35837904Y-81493333D01*
X35885523Y-81588571D01*
X35885523Y-81683809D01*
X35409333Y-81779047D01*
X36314095Y-82112380D02*
X36314095Y-81445714D01*
X36314095Y-81636190D02*
X36361714Y-81540952D01*
X36409333Y-81493333D01*
X36504571Y-81445714D01*
X36599809Y-81445714D01*
X37218857Y-81112380D02*
X37218857Y-81826666D01*
X37171238Y-81969523D01*
X37076000Y-82064761D01*
X36933142Y-82112380D01*
X36837904Y-82112380D01*
X38123619Y-82112380D02*
X38123619Y-81588571D01*
X38076000Y-81493333D01*
X37980761Y-81445714D01*
X37790285Y-81445714D01*
X37695047Y-81493333D01*
X38123619Y-82064761D02*
X38028380Y-82112380D01*
X37790285Y-82112380D01*
X37695047Y-82064761D01*
X37647428Y-81969523D01*
X37647428Y-81874285D01*
X37695047Y-81779047D01*
X37790285Y-81731428D01*
X38028380Y-81731428D01*
X38123619Y-81683809D01*
X38599809Y-82112380D02*
X38599809Y-81112380D01*
X38695047Y-81731428D02*
X38980761Y-82112380D01*
X38980761Y-81445714D02*
X38599809Y-81826666D01*
X39790285Y-82064761D02*
X39695047Y-82112380D01*
X39504571Y-82112380D01*
X39409333Y-82064761D01*
X39361714Y-81969523D01*
X39361714Y-81588571D01*
X39409333Y-81493333D01*
X39504571Y-81445714D01*
X39695047Y-81445714D01*
X39790285Y-81493333D01*
X39837904Y-81588571D01*
X39837904Y-81683809D01*
X39361714Y-81779047D01*
X41028380Y-82112380D02*
X41028380Y-81112380D01*
X41599809Y-82112380D02*
X41171238Y-81540952D01*
X41599809Y-81112380D02*
X41028380Y-81683809D01*
X42504571Y-82112380D02*
X42028380Y-82112380D01*
X42028380Y-81112380D01*
X42837904Y-81588571D02*
X43171238Y-81588571D01*
X43314095Y-82112380D02*
X42837904Y-82112380D01*
X42837904Y-81112380D01*
X43314095Y-81112380D01*
X44837904Y-81588571D02*
X44980761Y-81636190D01*
X45028380Y-81683809D01*
X45075999Y-81779047D01*
X45075999Y-81921904D01*
X45028380Y-82017142D01*
X44980761Y-82064761D01*
X44885523Y-82112380D01*
X44504571Y-82112380D01*
X44504571Y-81112380D01*
X44837904Y-81112380D01*
X44933142Y-81160000D01*
X44980761Y-81207619D01*
X45028380Y-81302857D01*
X45028380Y-81398095D01*
X44980761Y-81493333D01*
X44933142Y-81540952D01*
X44837904Y-81588571D01*
X44504571Y-81588571D01*
X45409333Y-81445714D02*
X45647428Y-82112380D01*
X45885523Y-81445714D02*
X45647428Y-82112380D01*
X45552190Y-82350476D01*
X45504571Y-82398095D01*
X45409333Y-82445714D01*
X47028380Y-82112380D02*
X47028380Y-81112380D01*
X47266476Y-81112380D01*
X47409333Y-81160000D01*
X47504571Y-81255238D01*
X47552190Y-81350476D01*
X47599809Y-81540952D01*
X47599809Y-81683809D01*
X47552190Y-81874285D01*
X47504571Y-81969523D01*
X47409333Y-82064761D01*
X47266476Y-82112380D01*
X47028380Y-82112380D01*
X48028380Y-82112380D02*
X48028380Y-81445714D01*
X48028380Y-81636190D02*
X48075999Y-81540952D01*
X48123619Y-81493333D01*
X48218857Y-81445714D01*
X48314095Y-81445714D01*
X48647428Y-82017142D02*
X48695047Y-82064761D01*
X48647428Y-82112380D01*
X48599809Y-82064761D01*
X48647428Y-82017142D01*
X48647428Y-82112380D01*
X50456952Y-82112380D02*
X50123619Y-81636190D01*
X49885523Y-82112380D02*
X49885523Y-81112380D01*
X50266476Y-81112380D01*
X50361714Y-81160000D01*
X50409333Y-81207619D01*
X50456952Y-81302857D01*
X50456952Y-81445714D01*
X50409333Y-81540952D01*
X50361714Y-81588571D01*
X50266476Y-81636190D01*
X49885523Y-81636190D01*
X51314095Y-82112380D02*
X51314095Y-81588571D01*
X51266476Y-81493333D01*
X51171238Y-81445714D01*
X50980761Y-81445714D01*
X50885523Y-81493333D01*
X51314095Y-82064761D02*
X51218857Y-82112380D01*
X50980761Y-82112380D01*
X50885523Y-82064761D01*
X50837904Y-81969523D01*
X50837904Y-81874285D01*
X50885523Y-81779047D01*
X50980761Y-81731428D01*
X51218857Y-81731428D01*
X51314095Y-81683809D01*
X51647428Y-81445714D02*
X52028380Y-81445714D01*
X51790285Y-81112380D02*
X51790285Y-81969523D01*
X51837904Y-82064761D01*
X51933142Y-82112380D01*
X52028380Y-82112380D01*
X52314095Y-82064761D02*
X52409333Y-82112380D01*
X52599809Y-82112380D01*
X52695047Y-82064761D01*
X52742666Y-81969523D01*
X52742666Y-81921904D01*
X52695047Y-81826666D01*
X52599809Y-81779047D01*
X52456952Y-81779047D01*
X52361714Y-81731428D01*
X52314095Y-81636190D01*
X52314095Y-81588571D01*
X52361714Y-81493333D01*
X52456952Y-81445714D01*
X52599809Y-81445714D01*
X52695047Y-81493333D01*
X53171238Y-82112380D02*
X53171238Y-81112380D01*
X53171238Y-81493333D02*
X53266476Y-81445714D01*
X53456952Y-81445714D01*
X53552190Y-81493333D01*
X53599809Y-81540952D01*
X53647428Y-81636190D01*
X53647428Y-81921904D01*
X53599809Y-82017142D01*
X53552190Y-82064761D01*
X53456952Y-82112380D01*
X53266476Y-82112380D01*
X53171238Y-82064761D01*
X53980761Y-81445714D02*
X54218857Y-82112380D01*
X54456952Y-81445714D02*
X54218857Y-82112380D01*
X54123619Y-82350476D01*
X54075999Y-82398095D01*
X53980761Y-82445714D01*
%TO.C,SW1*%
X25717666Y-9040761D02*
X25860523Y-9088380D01*
X26098619Y-9088380D01*
X26193857Y-9040761D01*
X26241476Y-8993142D01*
X26289095Y-8897904D01*
X26289095Y-8802666D01*
X26241476Y-8707428D01*
X26193857Y-8659809D01*
X26098619Y-8612190D01*
X25908142Y-8564571D01*
X25812904Y-8516952D01*
X25765285Y-8469333D01*
X25717666Y-8374095D01*
X25717666Y-8278857D01*
X25765285Y-8183619D01*
X25812904Y-8136000D01*
X25908142Y-8088380D01*
X26146238Y-8088380D01*
X26289095Y-8136000D01*
X26622428Y-8088380D02*
X26860523Y-9088380D01*
X27051000Y-8374095D01*
X27241476Y-9088380D01*
X27479571Y-8088380D01*
X28384333Y-9088380D02*
X27812904Y-9088380D01*
X28098619Y-9088380D02*
X28098619Y-8088380D01*
X28003380Y-8231238D01*
X27908142Y-8326476D01*
X27812904Y-8374095D01*
%TO.C,SW8*%
X159067666Y-9040761D02*
X159210523Y-9088380D01*
X159448619Y-9088380D01*
X159543857Y-9040761D01*
X159591476Y-8993142D01*
X159639095Y-8897904D01*
X159639095Y-8802666D01*
X159591476Y-8707428D01*
X159543857Y-8659809D01*
X159448619Y-8612190D01*
X159258142Y-8564571D01*
X159162904Y-8516952D01*
X159115285Y-8469333D01*
X159067666Y-8374095D01*
X159067666Y-8278857D01*
X159115285Y-8183619D01*
X159162904Y-8136000D01*
X159258142Y-8088380D01*
X159496238Y-8088380D01*
X159639095Y-8136000D01*
X159972428Y-8088380D02*
X160210523Y-9088380D01*
X160401000Y-8374095D01*
X160591476Y-9088380D01*
X160829571Y-8088380D01*
X161353380Y-8516952D02*
X161258142Y-8469333D01*
X161210523Y-8421714D01*
X161162904Y-8326476D01*
X161162904Y-8278857D01*
X161210523Y-8183619D01*
X161258142Y-8136000D01*
X161353380Y-8088380D01*
X161543857Y-8088380D01*
X161639095Y-8136000D01*
X161686714Y-8183619D01*
X161734333Y-8278857D01*
X161734333Y-8326476D01*
X161686714Y-8421714D01*
X161639095Y-8469333D01*
X161543857Y-8516952D01*
X161353380Y-8516952D01*
X161258142Y-8564571D01*
X161210523Y-8612190D01*
X161162904Y-8707428D01*
X161162904Y-8897904D01*
X161210523Y-8993142D01*
X161258142Y-9040761D01*
X161353380Y-9088380D01*
X161543857Y-9088380D01*
X161639095Y-9040761D01*
X161686714Y-8993142D01*
X161734333Y-8897904D01*
X161734333Y-8707428D01*
X161686714Y-8612190D01*
X161639095Y-8564571D01*
X161543857Y-8516952D01*
%TO.C,SW27*%
X149066476Y-47140761D02*
X149209333Y-47188380D01*
X149447428Y-47188380D01*
X149542666Y-47140761D01*
X149590285Y-47093142D01*
X149637904Y-46997904D01*
X149637904Y-46902666D01*
X149590285Y-46807428D01*
X149542666Y-46759809D01*
X149447428Y-46712190D01*
X149256952Y-46664571D01*
X149161714Y-46616952D01*
X149114095Y-46569333D01*
X149066476Y-46474095D01*
X149066476Y-46378857D01*
X149114095Y-46283619D01*
X149161714Y-46236000D01*
X149256952Y-46188380D01*
X149495047Y-46188380D01*
X149637904Y-46236000D01*
X149971238Y-46188380D02*
X150209333Y-47188380D01*
X150399809Y-46474095D01*
X150590285Y-47188380D01*
X150828380Y-46188380D01*
X151161714Y-46283619D02*
X151209333Y-46236000D01*
X151304571Y-46188380D01*
X151542666Y-46188380D01*
X151637904Y-46236000D01*
X151685523Y-46283619D01*
X151733142Y-46378857D01*
X151733142Y-46474095D01*
X151685523Y-46616952D01*
X151114095Y-47188380D01*
X151733142Y-47188380D01*
X152066476Y-46188380D02*
X152733142Y-46188380D01*
X152304571Y-47188380D01*
%TO.C,SW9*%
X178117666Y-9040761D02*
X178260523Y-9088380D01*
X178498619Y-9088380D01*
X178593857Y-9040761D01*
X178641476Y-8993142D01*
X178689095Y-8897904D01*
X178689095Y-8802666D01*
X178641476Y-8707428D01*
X178593857Y-8659809D01*
X178498619Y-8612190D01*
X178308142Y-8564571D01*
X178212904Y-8516952D01*
X178165285Y-8469333D01*
X178117666Y-8374095D01*
X178117666Y-8278857D01*
X178165285Y-8183619D01*
X178212904Y-8136000D01*
X178308142Y-8088380D01*
X178546238Y-8088380D01*
X178689095Y-8136000D01*
X179022428Y-8088380D02*
X179260523Y-9088380D01*
X179451000Y-8374095D01*
X179641476Y-9088380D01*
X179879571Y-8088380D01*
X180308142Y-9088380D02*
X180498619Y-9088380D01*
X180593857Y-9040761D01*
X180641476Y-8993142D01*
X180736714Y-8850285D01*
X180784333Y-8659809D01*
X180784333Y-8278857D01*
X180736714Y-8183619D01*
X180689095Y-8136000D01*
X180593857Y-8088380D01*
X180403380Y-8088380D01*
X180308142Y-8136000D01*
X180260523Y-8183619D01*
X180212904Y-8278857D01*
X180212904Y-8516952D01*
X180260523Y-8612190D01*
X180308142Y-8659809D01*
X180403380Y-8707428D01*
X180593857Y-8707428D01*
X180689095Y-8659809D01*
X180736714Y-8612190D01*
X180784333Y-8516952D01*
%TO.C,SW11*%
X25241476Y-28090761D02*
X25384333Y-28138380D01*
X25622428Y-28138380D01*
X25717666Y-28090761D01*
X25765285Y-28043142D01*
X25812904Y-27947904D01*
X25812904Y-27852666D01*
X25765285Y-27757428D01*
X25717666Y-27709809D01*
X25622428Y-27662190D01*
X25431952Y-27614571D01*
X25336714Y-27566952D01*
X25289095Y-27519333D01*
X25241476Y-27424095D01*
X25241476Y-27328857D01*
X25289095Y-27233619D01*
X25336714Y-27186000D01*
X25431952Y-27138380D01*
X25670047Y-27138380D01*
X25812904Y-27186000D01*
X26146238Y-27138380D02*
X26384333Y-28138380D01*
X26574809Y-27424095D01*
X26765285Y-28138380D01*
X27003380Y-27138380D01*
X27908142Y-28138380D02*
X27336714Y-28138380D01*
X27622428Y-28138380D02*
X27622428Y-27138380D01*
X27527190Y-27281238D01*
X27431952Y-27376476D01*
X27336714Y-27424095D01*
X28860523Y-28138380D02*
X28289095Y-28138380D01*
X28574809Y-28138380D02*
X28574809Y-27138380D01*
X28479571Y-27281238D01*
X28384333Y-27376476D01*
X28289095Y-27424095D01*
%TO.C,SW19*%
X177641476Y-28090761D02*
X177784333Y-28138380D01*
X178022428Y-28138380D01*
X178117666Y-28090761D01*
X178165285Y-28043142D01*
X178212904Y-27947904D01*
X178212904Y-27852666D01*
X178165285Y-27757428D01*
X178117666Y-27709809D01*
X178022428Y-27662190D01*
X177831952Y-27614571D01*
X177736714Y-27566952D01*
X177689095Y-27519333D01*
X177641476Y-27424095D01*
X177641476Y-27328857D01*
X177689095Y-27233619D01*
X177736714Y-27186000D01*
X177831952Y-27138380D01*
X178070047Y-27138380D01*
X178212904Y-27186000D01*
X178546238Y-27138380D02*
X178784333Y-28138380D01*
X178974809Y-27424095D01*
X179165285Y-28138380D01*
X179403380Y-27138380D01*
X180308142Y-28138380D02*
X179736714Y-28138380D01*
X180022428Y-28138380D02*
X180022428Y-27138380D01*
X179927190Y-27281238D01*
X179831952Y-27376476D01*
X179736714Y-27424095D01*
X180784333Y-28138380D02*
X180974809Y-28138380D01*
X181070047Y-28090761D01*
X181117666Y-28043142D01*
X181212904Y-27900285D01*
X181260523Y-27709809D01*
X181260523Y-27328857D01*
X181212904Y-27233619D01*
X181165285Y-27186000D01*
X181070047Y-27138380D01*
X180879571Y-27138380D01*
X180784333Y-27186000D01*
X180736714Y-27233619D01*
X180689095Y-27328857D01*
X180689095Y-27566952D01*
X180736714Y-27662190D01*
X180784333Y-27709809D01*
X180879571Y-27757428D01*
X181070047Y-27757428D01*
X181165285Y-27709809D01*
X181212904Y-27662190D01*
X181260523Y-27566952D01*
%TO.C,U1*%
X20964523Y-32616904D02*
X20964523Y-31816904D01*
X21155000Y-31816904D01*
X21269285Y-31855000D01*
X21345476Y-31931190D01*
X21383571Y-32007380D01*
X21421666Y-32159761D01*
X21421666Y-32274047D01*
X21383571Y-32426428D01*
X21345476Y-32502619D01*
X21269285Y-32578809D01*
X21155000Y-32616904D01*
X20964523Y-32616904D01*
X21688333Y-31816904D02*
X22221666Y-31816904D01*
X21878809Y-32616904D01*
X21231190Y-37277857D02*
X21345476Y-37315952D01*
X21383571Y-37354047D01*
X21421666Y-37430238D01*
X21421666Y-37544523D01*
X21383571Y-37620714D01*
X21345476Y-37658809D01*
X21269285Y-37696904D01*
X20964523Y-37696904D01*
X20964523Y-36896904D01*
X21231190Y-36896904D01*
X21307380Y-36935000D01*
X21345476Y-36973095D01*
X21383571Y-37049285D01*
X21383571Y-37125476D01*
X21345476Y-37201666D01*
X21307380Y-37239761D01*
X21231190Y-37277857D01*
X20964523Y-37277857D01*
X22107380Y-37163571D02*
X22107380Y-37696904D01*
X21916904Y-36858809D02*
X21726428Y-37430238D01*
X22221666Y-37430238D01*
X21231190Y-39817857D02*
X21345476Y-39855952D01*
X21383571Y-39894047D01*
X21421666Y-39970238D01*
X21421666Y-40084523D01*
X21383571Y-40160714D01*
X21345476Y-40198809D01*
X21269285Y-40236904D01*
X20964523Y-40236904D01*
X20964523Y-39436904D01*
X21231190Y-39436904D01*
X21307380Y-39475000D01*
X21345476Y-39513095D01*
X21383571Y-39589285D01*
X21383571Y-39665476D01*
X21345476Y-39741666D01*
X21307380Y-39779761D01*
X21231190Y-39817857D01*
X20964523Y-39817857D01*
X22145476Y-39436904D02*
X21764523Y-39436904D01*
X21726428Y-39817857D01*
X21764523Y-39779761D01*
X21840714Y-39741666D01*
X22031190Y-39741666D01*
X22107380Y-39779761D01*
X22145476Y-39817857D01*
X22183571Y-39894047D01*
X22183571Y-40084523D01*
X22145476Y-40160714D01*
X22107380Y-40198809D01*
X22031190Y-40236904D01*
X21840714Y-40236904D01*
X21764523Y-40198809D01*
X21726428Y-40160714D01*
X21002619Y-34737857D02*
X21269285Y-34737857D01*
X21383571Y-35156904D02*
X21002619Y-35156904D01*
X21002619Y-34356904D01*
X21383571Y-34356904D01*
X22069285Y-34356904D02*
X21916904Y-34356904D01*
X21840714Y-34395000D01*
X21802619Y-34433095D01*
X21726428Y-34547380D01*
X21688333Y-34699761D01*
X21688333Y-35004523D01*
X21726428Y-35080714D01*
X21764523Y-35118809D01*
X21840714Y-35156904D01*
X21993095Y-35156904D01*
X22069285Y-35118809D01*
X22107380Y-35080714D01*
X22145476Y-35004523D01*
X22145476Y-34814047D01*
X22107380Y-34737857D01*
X22069285Y-34699761D01*
X21993095Y-34661666D01*
X21840714Y-34661666D01*
X21764523Y-34699761D01*
X21726428Y-34737857D01*
X21688333Y-34814047D01*
X20964523Y-27536904D02*
X20964523Y-26736904D01*
X21155000Y-26736904D01*
X21269285Y-26775000D01*
X21345476Y-26851190D01*
X21383571Y-26927380D01*
X21421666Y-27079761D01*
X21421666Y-27194047D01*
X21383571Y-27346428D01*
X21345476Y-27422619D01*
X21269285Y-27498809D01*
X21155000Y-27536904D01*
X20964523Y-27536904D01*
X22107380Y-27003571D02*
X22107380Y-27536904D01*
X21916904Y-26698809D02*
X21726428Y-27270238D01*
X22221666Y-27270238D01*
X21253651Y-11496904D02*
X21710794Y-11496904D01*
X21482223Y-12296904D02*
X21482223Y-11496904D01*
X21901270Y-11496904D02*
X22434604Y-12296904D01*
X22434604Y-11496904D02*
X21901270Y-12296904D01*
X22891747Y-11496904D02*
X22967937Y-11496904D01*
X23044128Y-11535000D01*
X23082223Y-11573095D01*
X23120318Y-11649285D01*
X23158413Y-11801666D01*
X23158413Y-11992142D01*
X23120318Y-12144523D01*
X23082223Y-12220714D01*
X23044128Y-12258809D01*
X22967937Y-12296904D01*
X22891747Y-12296904D01*
X22815556Y-12258809D01*
X22777461Y-12220714D01*
X22739366Y-12144523D01*
X22701270Y-11992142D01*
X22701270Y-11801666D01*
X22739366Y-11649285D01*
X22777461Y-11573095D01*
X22815556Y-11535000D01*
X22891747Y-11496904D01*
X24072699Y-11458809D02*
X23386985Y-12487380D01*
X24339366Y-12296904D02*
X24339366Y-11496904D01*
X24529842Y-11496904D01*
X24644128Y-11535000D01*
X24720318Y-11611190D01*
X24758413Y-11687380D01*
X24796508Y-11839761D01*
X24796508Y-11954047D01*
X24758413Y-12106428D01*
X24720318Y-12182619D01*
X24644128Y-12258809D01*
X24529842Y-12296904D01*
X24339366Y-12296904D01*
X25063175Y-11496904D02*
X25558413Y-11496904D01*
X25291747Y-11801666D01*
X25406032Y-11801666D01*
X25482223Y-11839761D01*
X25520318Y-11877857D01*
X25558413Y-11954047D01*
X25558413Y-12144523D01*
X25520318Y-12220714D01*
X25482223Y-12258809D01*
X25406032Y-12296904D01*
X25177461Y-12296904D01*
X25101270Y-12258809D01*
X25063175Y-12220714D01*
X20964523Y-22456904D02*
X20964523Y-21656904D01*
X21155000Y-21656904D01*
X21269285Y-21695000D01*
X21345476Y-21771190D01*
X21383571Y-21847380D01*
X21421666Y-21999761D01*
X21421666Y-22114047D01*
X21383571Y-22266428D01*
X21345476Y-22342619D01*
X21269285Y-22418809D01*
X21155000Y-22456904D01*
X20964523Y-22456904D01*
X22183571Y-22456904D02*
X21726428Y-22456904D01*
X21955000Y-22456904D02*
X21955000Y-21656904D01*
X21878809Y-21771190D01*
X21802619Y-21847380D01*
X21726428Y-21885476D01*
X32153190Y-32197857D02*
X32267476Y-32235952D01*
X32305571Y-32274047D01*
X32343666Y-32350238D01*
X32343666Y-32464523D01*
X32305571Y-32540714D01*
X32267476Y-32578809D01*
X32191285Y-32616904D01*
X31886523Y-32616904D01*
X31886523Y-31816904D01*
X32153190Y-31816904D01*
X32229380Y-31855000D01*
X32267476Y-31893095D01*
X32305571Y-31969285D01*
X32305571Y-32045476D01*
X32267476Y-32121666D01*
X32229380Y-32159761D01*
X32153190Y-32197857D01*
X31886523Y-32197857D01*
X33105571Y-32616904D02*
X32648428Y-32616904D01*
X32877000Y-32616904D02*
X32877000Y-31816904D01*
X32800809Y-31931190D01*
X32724619Y-32007380D01*
X32648428Y-32045476D01*
X20964523Y-24996904D02*
X20964523Y-24196904D01*
X21155000Y-24196904D01*
X21269285Y-24235000D01*
X21345476Y-24311190D01*
X21383571Y-24387380D01*
X21421666Y-24539761D01*
X21421666Y-24654047D01*
X21383571Y-24806428D01*
X21345476Y-24882619D01*
X21269285Y-24958809D01*
X21155000Y-24996904D01*
X20964523Y-24996904D01*
X21916904Y-24196904D02*
X21993095Y-24196904D01*
X22069285Y-24235000D01*
X22107380Y-24273095D01*
X22145476Y-24349285D01*
X22183571Y-24501666D01*
X22183571Y-24692142D01*
X22145476Y-24844523D01*
X22107380Y-24920714D01*
X22069285Y-24958809D01*
X21993095Y-24996904D01*
X21916904Y-24996904D01*
X21840714Y-24958809D01*
X21802619Y-24920714D01*
X21764523Y-24844523D01*
X21726428Y-24692142D01*
X21726428Y-24501666D01*
X21764523Y-24349285D01*
X21802619Y-24273095D01*
X21840714Y-24235000D01*
X21916904Y-24196904D01*
X31867476Y-14075000D02*
X31791285Y-14036904D01*
X31677000Y-14036904D01*
X31562714Y-14075000D01*
X31486523Y-14151190D01*
X31448428Y-14227380D01*
X31410333Y-14379761D01*
X31410333Y-14494047D01*
X31448428Y-14646428D01*
X31486523Y-14722619D01*
X31562714Y-14798809D01*
X31677000Y-14836904D01*
X31753190Y-14836904D01*
X31867476Y-14798809D01*
X31905571Y-14760714D01*
X31905571Y-14494047D01*
X31753190Y-14494047D01*
X32248428Y-14836904D02*
X32248428Y-14036904D01*
X32705571Y-14836904D01*
X32705571Y-14036904D01*
X33086523Y-14836904D02*
X33086523Y-14036904D01*
X33277000Y-14036904D01*
X33391285Y-14075000D01*
X33467476Y-14151190D01*
X33505571Y-14227380D01*
X33543666Y-14379761D01*
X33543666Y-14494047D01*
X33505571Y-14646428D01*
X33467476Y-14722619D01*
X33391285Y-14798809D01*
X33277000Y-14836904D01*
X33086523Y-14836904D01*
X20945476Y-19155000D02*
X20869285Y-19116904D01*
X20755000Y-19116904D01*
X20640714Y-19155000D01*
X20564523Y-19231190D01*
X20526428Y-19307380D01*
X20488333Y-19459761D01*
X20488333Y-19574047D01*
X20526428Y-19726428D01*
X20564523Y-19802619D01*
X20640714Y-19878809D01*
X20755000Y-19916904D01*
X20831190Y-19916904D01*
X20945476Y-19878809D01*
X20983571Y-19840714D01*
X20983571Y-19574047D01*
X20831190Y-19574047D01*
X21326428Y-19916904D02*
X21326428Y-19116904D01*
X21783571Y-19916904D01*
X21783571Y-19116904D01*
X22164523Y-19916904D02*
X22164523Y-19116904D01*
X22355000Y-19116904D01*
X22469285Y-19155000D01*
X22545476Y-19231190D01*
X22583571Y-19307380D01*
X22621666Y-19459761D01*
X22621666Y-19574047D01*
X22583571Y-19726428D01*
X22545476Y-19802619D01*
X22469285Y-19878809D01*
X22355000Y-19916904D01*
X22164523Y-19916904D01*
X32210333Y-22037857D02*
X31943666Y-22037857D01*
X31943666Y-22456904D02*
X31943666Y-21656904D01*
X32324619Y-21656904D01*
X32972238Y-21923571D02*
X32972238Y-22456904D01*
X32781761Y-21618809D02*
X32591285Y-22190238D01*
X33086523Y-22190238D01*
X31924619Y-12296904D02*
X31657952Y-11915952D01*
X31467476Y-12296904D02*
X31467476Y-11496904D01*
X31772238Y-11496904D01*
X31848428Y-11535000D01*
X31886523Y-11573095D01*
X31924619Y-11649285D01*
X31924619Y-11763571D01*
X31886523Y-11839761D01*
X31848428Y-11877857D01*
X31772238Y-11915952D01*
X31467476Y-11915952D01*
X32229380Y-12068333D02*
X32610333Y-12068333D01*
X32153190Y-12296904D02*
X32419857Y-11496904D01*
X32686523Y-12296904D01*
X32877000Y-11496904D02*
X33067476Y-12296904D01*
X33219857Y-11725476D01*
X33372238Y-12296904D01*
X33562714Y-11496904D01*
X32153190Y-37277857D02*
X32267476Y-37315952D01*
X32305571Y-37354047D01*
X32343666Y-37430238D01*
X32343666Y-37544523D01*
X32305571Y-37620714D01*
X32267476Y-37658809D01*
X32191285Y-37696904D01*
X31886523Y-37696904D01*
X31886523Y-36896904D01*
X32153190Y-36896904D01*
X32229380Y-36935000D01*
X32267476Y-36973095D01*
X32305571Y-37049285D01*
X32305571Y-37125476D01*
X32267476Y-37201666D01*
X32229380Y-37239761D01*
X32153190Y-37277857D01*
X31886523Y-37277857D01*
X32648428Y-36973095D02*
X32686523Y-36935000D01*
X32762714Y-36896904D01*
X32953190Y-36896904D01*
X33029380Y-36935000D01*
X33067476Y-36973095D01*
X33105571Y-37049285D01*
X33105571Y-37125476D01*
X33067476Y-37239761D01*
X32610333Y-37696904D01*
X33105571Y-37696904D01*
X32215786Y-17308809D02*
X32330072Y-17346904D01*
X32520548Y-17346904D01*
X32596739Y-17308809D01*
X32634834Y-17270714D01*
X32672929Y-17194523D01*
X32672929Y-17118333D01*
X32634834Y-17042142D01*
X32596739Y-17004047D01*
X32520548Y-16965952D01*
X32368167Y-16927857D01*
X32291977Y-16889761D01*
X32253881Y-16851666D01*
X32215786Y-16775476D01*
X32215786Y-16699285D01*
X32253881Y-16623095D01*
X32291977Y-16585000D01*
X32368167Y-16546904D01*
X32558643Y-16546904D01*
X32672929Y-16585000D01*
X32901500Y-16546904D02*
X33358643Y-16546904D01*
X33130072Y-17346904D02*
X33130072Y-16546904D01*
X32210333Y-27117857D02*
X31943666Y-27117857D01*
X31943666Y-27536904D02*
X31943666Y-26736904D01*
X32324619Y-26736904D01*
X32972238Y-26736904D02*
X32819857Y-26736904D01*
X32743666Y-26775000D01*
X32705571Y-26813095D01*
X32629380Y-26927380D01*
X32591285Y-27079761D01*
X32591285Y-27384523D01*
X32629380Y-27460714D01*
X32667476Y-27498809D01*
X32743666Y-27536904D01*
X32896047Y-27536904D01*
X32972238Y-27498809D01*
X33010333Y-27460714D01*
X33048428Y-27384523D01*
X33048428Y-27194047D01*
X33010333Y-27117857D01*
X32972238Y-27079761D01*
X32896047Y-27041666D01*
X32743666Y-27041666D01*
X32667476Y-27079761D01*
X32629380Y-27117857D01*
X32591285Y-27194047D01*
X20964523Y-14836904D02*
X20964523Y-14036904D01*
X21155000Y-14036904D01*
X21269285Y-14075000D01*
X21345476Y-14151190D01*
X21383571Y-14227380D01*
X21421666Y-14379761D01*
X21421666Y-14494047D01*
X21383571Y-14646428D01*
X21345476Y-14722619D01*
X21269285Y-14798809D01*
X21155000Y-14836904D01*
X20964523Y-14836904D01*
X21726428Y-14113095D02*
X21764523Y-14075000D01*
X21840714Y-14036904D01*
X22031190Y-14036904D01*
X22107380Y-14075000D01*
X22145476Y-14113095D01*
X22183571Y-14189285D01*
X22183571Y-14265476D01*
X22145476Y-14379761D01*
X21688333Y-14836904D01*
X22183571Y-14836904D01*
X32153190Y-39817857D02*
X32267476Y-39855952D01*
X32305571Y-39894047D01*
X32343666Y-39970238D01*
X32343666Y-40084523D01*
X32305571Y-40160714D01*
X32267476Y-40198809D01*
X32191285Y-40236904D01*
X31886523Y-40236904D01*
X31886523Y-39436904D01*
X32153190Y-39436904D01*
X32229380Y-39475000D01*
X32267476Y-39513095D01*
X32305571Y-39589285D01*
X32305571Y-39665476D01*
X32267476Y-39741666D01*
X32229380Y-39779761D01*
X32153190Y-39817857D01*
X31886523Y-39817857D01*
X33029380Y-39436904D02*
X32877000Y-39436904D01*
X32800809Y-39475000D01*
X32762714Y-39513095D01*
X32686523Y-39627380D01*
X32648428Y-39779761D01*
X32648428Y-40084523D01*
X32686523Y-40160714D01*
X32724619Y-40198809D01*
X32800809Y-40236904D01*
X32953190Y-40236904D01*
X33029380Y-40198809D01*
X33067476Y-40160714D01*
X33105571Y-40084523D01*
X33105571Y-39894047D01*
X33067476Y-39817857D01*
X33029380Y-39779761D01*
X32953190Y-39741666D01*
X32800809Y-39741666D01*
X32724619Y-39779761D01*
X32686523Y-39817857D01*
X32648428Y-39894047D01*
X32210333Y-29657857D02*
X31943666Y-29657857D01*
X31943666Y-30076904D02*
X31943666Y-29276904D01*
X32324619Y-29276904D01*
X32553190Y-29276904D02*
X33086523Y-29276904D01*
X32743666Y-30076904D01*
X32153190Y-34737857D02*
X32267476Y-34775952D01*
X32305571Y-34814047D01*
X32343666Y-34890238D01*
X32343666Y-35004523D01*
X32305571Y-35080714D01*
X32267476Y-35118809D01*
X32191285Y-35156904D01*
X31886523Y-35156904D01*
X31886523Y-34356904D01*
X32153190Y-34356904D01*
X32229380Y-34395000D01*
X32267476Y-34433095D01*
X32305571Y-34509285D01*
X32305571Y-34585476D01*
X32267476Y-34661666D01*
X32229380Y-34699761D01*
X32153190Y-34737857D01*
X31886523Y-34737857D01*
X32610333Y-34356904D02*
X33105571Y-34356904D01*
X32838904Y-34661666D01*
X32953190Y-34661666D01*
X33029380Y-34699761D01*
X33067476Y-34737857D01*
X33105571Y-34814047D01*
X33105571Y-35004523D01*
X33067476Y-35080714D01*
X33029380Y-35118809D01*
X32953190Y-35156904D01*
X32724619Y-35156904D01*
X32648428Y-35118809D01*
X32610333Y-35080714D01*
X32210333Y-24577857D02*
X31943666Y-24577857D01*
X31943666Y-24996904D02*
X31943666Y-24196904D01*
X32324619Y-24196904D01*
X33010333Y-24196904D02*
X32629380Y-24196904D01*
X32591285Y-24577857D01*
X32629380Y-24539761D01*
X32705571Y-24501666D01*
X32896047Y-24501666D01*
X32972238Y-24539761D01*
X33010333Y-24577857D01*
X33048428Y-24654047D01*
X33048428Y-24844523D01*
X33010333Y-24920714D01*
X32972238Y-24958809D01*
X32896047Y-24996904D01*
X32705571Y-24996904D01*
X32629380Y-24958809D01*
X32591285Y-24920714D01*
X31410333Y-19116904D02*
X31677000Y-19916904D01*
X31943666Y-19116904D01*
X32667476Y-19840714D02*
X32629380Y-19878809D01*
X32515095Y-19916904D01*
X32438904Y-19916904D01*
X32324619Y-19878809D01*
X32248428Y-19802619D01*
X32210333Y-19726428D01*
X32172238Y-19574047D01*
X32172238Y-19459761D01*
X32210333Y-19307380D01*
X32248428Y-19231190D01*
X32324619Y-19155000D01*
X32438904Y-19116904D01*
X32515095Y-19116904D01*
X32629380Y-19155000D01*
X32667476Y-19193095D01*
X33467476Y-19840714D02*
X33429380Y-19878809D01*
X33315095Y-19916904D01*
X33238904Y-19916904D01*
X33124619Y-19878809D01*
X33048428Y-19802619D01*
X33010333Y-19726428D01*
X32972238Y-19574047D01*
X32972238Y-19459761D01*
X33010333Y-19307380D01*
X33048428Y-19231190D01*
X33124619Y-19155000D01*
X33238904Y-19116904D01*
X33315095Y-19116904D01*
X33429380Y-19155000D01*
X33467476Y-19193095D01*
X21421666Y-30000714D02*
X21383571Y-30038809D01*
X21269285Y-30076904D01*
X21193095Y-30076904D01*
X21078809Y-30038809D01*
X21002619Y-29962619D01*
X20964523Y-29886428D01*
X20926428Y-29734047D01*
X20926428Y-29619761D01*
X20964523Y-29467380D01*
X21002619Y-29391190D01*
X21078809Y-29315000D01*
X21193095Y-29276904D01*
X21269285Y-29276904D01*
X21383571Y-29315000D01*
X21421666Y-29353095D01*
X22107380Y-29276904D02*
X21955000Y-29276904D01*
X21878809Y-29315000D01*
X21840714Y-29353095D01*
X21764523Y-29467380D01*
X21726428Y-29619761D01*
X21726428Y-29924523D01*
X21764523Y-30000714D01*
X21802619Y-30038809D01*
X21878809Y-30076904D01*
X22031190Y-30076904D01*
X22107380Y-30038809D01*
X22145476Y-30000714D01*
X22183571Y-29924523D01*
X22183571Y-29734047D01*
X22145476Y-29657857D01*
X22107380Y-29619761D01*
X22031190Y-29581666D01*
X21878809Y-29581666D01*
X21802619Y-29619761D01*
X21764523Y-29657857D01*
X21726428Y-29734047D01*
X20945476Y-16615000D02*
X20869285Y-16576904D01*
X20755000Y-16576904D01*
X20640714Y-16615000D01*
X20564523Y-16691190D01*
X20526428Y-16767380D01*
X20488333Y-16919761D01*
X20488333Y-17034047D01*
X20526428Y-17186428D01*
X20564523Y-17262619D01*
X20640714Y-17338809D01*
X20755000Y-17376904D01*
X20831190Y-17376904D01*
X20945476Y-17338809D01*
X20983571Y-17300714D01*
X20983571Y-17034047D01*
X20831190Y-17034047D01*
X21326428Y-17376904D02*
X21326428Y-16576904D01*
X21783571Y-17376904D01*
X21783571Y-16576904D01*
X22164523Y-17376904D02*
X22164523Y-16576904D01*
X22355000Y-16576904D01*
X22469285Y-16615000D01*
X22545476Y-16691190D01*
X22583571Y-16767380D01*
X22621666Y-16919761D01*
X22621666Y-17034047D01*
X22583571Y-17186428D01*
X22545476Y-17262619D01*
X22469285Y-17338809D01*
X22355000Y-17376904D01*
X22164523Y-17376904D01*
%TO.C,SW17*%
X139541476Y-28090761D02*
X139684333Y-28138380D01*
X139922428Y-28138380D01*
X140017666Y-28090761D01*
X140065285Y-28043142D01*
X140112904Y-27947904D01*
X140112904Y-27852666D01*
X140065285Y-27757428D01*
X140017666Y-27709809D01*
X139922428Y-27662190D01*
X139731952Y-27614571D01*
X139636714Y-27566952D01*
X139589095Y-27519333D01*
X139541476Y-27424095D01*
X139541476Y-27328857D01*
X139589095Y-27233619D01*
X139636714Y-27186000D01*
X139731952Y-27138380D01*
X139970047Y-27138380D01*
X140112904Y-27186000D01*
X140446238Y-27138380D02*
X140684333Y-28138380D01*
X140874809Y-27424095D01*
X141065285Y-28138380D01*
X141303380Y-27138380D01*
X142208142Y-28138380D02*
X141636714Y-28138380D01*
X141922428Y-28138380D02*
X141922428Y-27138380D01*
X141827190Y-27281238D01*
X141731952Y-27376476D01*
X141636714Y-27424095D01*
X142541476Y-27138380D02*
X143208142Y-27138380D01*
X142779571Y-28138380D01*
%TO.C,SW26*%
X130016476Y-47140761D02*
X130159333Y-47188380D01*
X130397428Y-47188380D01*
X130492666Y-47140761D01*
X130540285Y-47093142D01*
X130587904Y-46997904D01*
X130587904Y-46902666D01*
X130540285Y-46807428D01*
X130492666Y-46759809D01*
X130397428Y-46712190D01*
X130206952Y-46664571D01*
X130111714Y-46616952D01*
X130064095Y-46569333D01*
X130016476Y-46474095D01*
X130016476Y-46378857D01*
X130064095Y-46283619D01*
X130111714Y-46236000D01*
X130206952Y-46188380D01*
X130445047Y-46188380D01*
X130587904Y-46236000D01*
X130921238Y-46188380D02*
X131159333Y-47188380D01*
X131349809Y-46474095D01*
X131540285Y-47188380D01*
X131778380Y-46188380D01*
X132111714Y-46283619D02*
X132159333Y-46236000D01*
X132254571Y-46188380D01*
X132492666Y-46188380D01*
X132587904Y-46236000D01*
X132635523Y-46283619D01*
X132683142Y-46378857D01*
X132683142Y-46474095D01*
X132635523Y-46616952D01*
X132064095Y-47188380D01*
X132683142Y-47188380D01*
X133540285Y-46188380D02*
X133349809Y-46188380D01*
X133254571Y-46236000D01*
X133206952Y-46283619D01*
X133111714Y-46426476D01*
X133064095Y-46616952D01*
X133064095Y-46997904D01*
X133111714Y-47093142D01*
X133159333Y-47140761D01*
X133254571Y-47188380D01*
X133445047Y-47188380D01*
X133540285Y-47140761D01*
X133587904Y-47093142D01*
X133635523Y-46997904D01*
X133635523Y-46759809D01*
X133587904Y-46664571D01*
X133540285Y-46616952D01*
X133445047Y-46569333D01*
X133254571Y-46569333D01*
X133159333Y-46616952D01*
X133111714Y-46664571D01*
X133064095Y-46759809D01*
%TO.C,SW14*%
X82391476Y-28090761D02*
X82534333Y-28138380D01*
X82772428Y-28138380D01*
X82867666Y-28090761D01*
X82915285Y-28043142D01*
X82962904Y-27947904D01*
X82962904Y-27852666D01*
X82915285Y-27757428D01*
X82867666Y-27709809D01*
X82772428Y-27662190D01*
X82581952Y-27614571D01*
X82486714Y-27566952D01*
X82439095Y-27519333D01*
X82391476Y-27424095D01*
X82391476Y-27328857D01*
X82439095Y-27233619D01*
X82486714Y-27186000D01*
X82581952Y-27138380D01*
X82820047Y-27138380D01*
X82962904Y-27186000D01*
X83296238Y-27138380D02*
X83534333Y-28138380D01*
X83724809Y-27424095D01*
X83915285Y-28138380D01*
X84153380Y-27138380D01*
X85058142Y-28138380D02*
X84486714Y-28138380D01*
X84772428Y-28138380D02*
X84772428Y-27138380D01*
X84677190Y-27281238D01*
X84581952Y-27376476D01*
X84486714Y-27424095D01*
X85915285Y-27471714D02*
X85915285Y-28138380D01*
X85677190Y-27090761D02*
X85439095Y-27805047D01*
X86058142Y-27805047D01*
%TO.C,SW29*%
X191928976Y-47140761D02*
X192071833Y-47188380D01*
X192309928Y-47188380D01*
X192405166Y-47140761D01*
X192452785Y-47093142D01*
X192500404Y-46997904D01*
X192500404Y-46902666D01*
X192452785Y-46807428D01*
X192405166Y-46759809D01*
X192309928Y-46712190D01*
X192119452Y-46664571D01*
X192024214Y-46616952D01*
X191976595Y-46569333D01*
X191928976Y-46474095D01*
X191928976Y-46378857D01*
X191976595Y-46283619D01*
X192024214Y-46236000D01*
X192119452Y-46188380D01*
X192357547Y-46188380D01*
X192500404Y-46236000D01*
X192833738Y-46188380D02*
X193071833Y-47188380D01*
X193262309Y-46474095D01*
X193452785Y-47188380D01*
X193690880Y-46188380D01*
X194024214Y-46283619D02*
X194071833Y-46236000D01*
X194167071Y-46188380D01*
X194405166Y-46188380D01*
X194500404Y-46236000D01*
X194548023Y-46283619D01*
X194595642Y-46378857D01*
X194595642Y-46474095D01*
X194548023Y-46616952D01*
X193976595Y-47188380D01*
X194595642Y-47188380D01*
X195071833Y-47188380D02*
X195262309Y-47188380D01*
X195357547Y-47140761D01*
X195405166Y-47093142D01*
X195500404Y-46950285D01*
X195548023Y-46759809D01*
X195548023Y-46378857D01*
X195500404Y-46283619D01*
X195452785Y-46236000D01*
X195357547Y-46188380D01*
X195167071Y-46188380D01*
X195071833Y-46236000D01*
X195024214Y-46283619D01*
X194976595Y-46378857D01*
X194976595Y-46616952D01*
X195024214Y-46712190D01*
X195071833Y-46759809D01*
X195167071Y-46807428D01*
X195357547Y-46807428D01*
X195452785Y-46759809D01*
X195500404Y-46712190D01*
X195548023Y-46616952D01*
%TO.C,SW6*%
X120967666Y-9040761D02*
X121110523Y-9088380D01*
X121348619Y-9088380D01*
X121443857Y-9040761D01*
X121491476Y-8993142D01*
X121539095Y-8897904D01*
X121539095Y-8802666D01*
X121491476Y-8707428D01*
X121443857Y-8659809D01*
X121348619Y-8612190D01*
X121158142Y-8564571D01*
X121062904Y-8516952D01*
X121015285Y-8469333D01*
X120967666Y-8374095D01*
X120967666Y-8278857D01*
X121015285Y-8183619D01*
X121062904Y-8136000D01*
X121158142Y-8088380D01*
X121396238Y-8088380D01*
X121539095Y-8136000D01*
X121872428Y-8088380D02*
X122110523Y-9088380D01*
X122301000Y-8374095D01*
X122491476Y-9088380D01*
X122729571Y-8088380D01*
X123539095Y-8088380D02*
X123348619Y-8088380D01*
X123253380Y-8136000D01*
X123205761Y-8183619D01*
X123110523Y-8326476D01*
X123062904Y-8516952D01*
X123062904Y-8897904D01*
X123110523Y-8993142D01*
X123158142Y-9040761D01*
X123253380Y-9088380D01*
X123443857Y-9088380D01*
X123539095Y-9040761D01*
X123586714Y-8993142D01*
X123634333Y-8897904D01*
X123634333Y-8659809D01*
X123586714Y-8564571D01*
X123539095Y-8516952D01*
X123443857Y-8469333D01*
X123253380Y-8469333D01*
X123158142Y-8516952D01*
X123110523Y-8564571D01*
X123062904Y-8659809D01*
%TO.C,SW24*%
X91916476Y-47140761D02*
X92059333Y-47188380D01*
X92297428Y-47188380D01*
X92392666Y-47140761D01*
X92440285Y-47093142D01*
X92487904Y-46997904D01*
X92487904Y-46902666D01*
X92440285Y-46807428D01*
X92392666Y-46759809D01*
X92297428Y-46712190D01*
X92106952Y-46664571D01*
X92011714Y-46616952D01*
X91964095Y-46569333D01*
X91916476Y-46474095D01*
X91916476Y-46378857D01*
X91964095Y-46283619D01*
X92011714Y-46236000D01*
X92106952Y-46188380D01*
X92345047Y-46188380D01*
X92487904Y-46236000D01*
X92821238Y-46188380D02*
X93059333Y-47188380D01*
X93249809Y-46474095D01*
X93440285Y-47188380D01*
X93678380Y-46188380D01*
X94011714Y-46283619D02*
X94059333Y-46236000D01*
X94154571Y-46188380D01*
X94392666Y-46188380D01*
X94487904Y-46236000D01*
X94535523Y-46283619D01*
X94583142Y-46378857D01*
X94583142Y-46474095D01*
X94535523Y-46616952D01*
X93964095Y-47188380D01*
X94583142Y-47188380D01*
X95440285Y-46521714D02*
X95440285Y-47188380D01*
X95202190Y-46140761D02*
X94964095Y-46855047D01*
X95583142Y-46855047D01*
%TO.C,SW28*%
X168116476Y-47140761D02*
X168259333Y-47188380D01*
X168497428Y-47188380D01*
X168592666Y-47140761D01*
X168640285Y-47093142D01*
X168687904Y-46997904D01*
X168687904Y-46902666D01*
X168640285Y-46807428D01*
X168592666Y-46759809D01*
X168497428Y-46712190D01*
X168306952Y-46664571D01*
X168211714Y-46616952D01*
X168164095Y-46569333D01*
X168116476Y-46474095D01*
X168116476Y-46378857D01*
X168164095Y-46283619D01*
X168211714Y-46236000D01*
X168306952Y-46188380D01*
X168545047Y-46188380D01*
X168687904Y-46236000D01*
X169021238Y-46188380D02*
X169259333Y-47188380D01*
X169449809Y-46474095D01*
X169640285Y-47188380D01*
X169878380Y-46188380D01*
X170211714Y-46283619D02*
X170259333Y-46236000D01*
X170354571Y-46188380D01*
X170592666Y-46188380D01*
X170687904Y-46236000D01*
X170735523Y-46283619D01*
X170783142Y-46378857D01*
X170783142Y-46474095D01*
X170735523Y-46616952D01*
X170164095Y-47188380D01*
X170783142Y-47188380D01*
X171354571Y-46616952D02*
X171259333Y-46569333D01*
X171211714Y-46521714D01*
X171164095Y-46426476D01*
X171164095Y-46378857D01*
X171211714Y-46283619D01*
X171259333Y-46236000D01*
X171354571Y-46188380D01*
X171545047Y-46188380D01*
X171640285Y-46236000D01*
X171687904Y-46283619D01*
X171735523Y-46378857D01*
X171735523Y-46426476D01*
X171687904Y-46521714D01*
X171640285Y-46569333D01*
X171545047Y-46616952D01*
X171354571Y-46616952D01*
X171259333Y-46664571D01*
X171211714Y-46712190D01*
X171164095Y-46807428D01*
X171164095Y-46997904D01*
X171211714Y-47093142D01*
X171259333Y-47140761D01*
X171354571Y-47188380D01*
X171545047Y-47188380D01*
X171640285Y-47140761D01*
X171687904Y-47093142D01*
X171735523Y-46997904D01*
X171735523Y-46807428D01*
X171687904Y-46712190D01*
X171640285Y-46664571D01*
X171545047Y-46616952D01*
%TO.C,SW4*%
X82867666Y-9040761D02*
X83010523Y-9088380D01*
X83248619Y-9088380D01*
X83343857Y-9040761D01*
X83391476Y-8993142D01*
X83439095Y-8897904D01*
X83439095Y-8802666D01*
X83391476Y-8707428D01*
X83343857Y-8659809D01*
X83248619Y-8612190D01*
X83058142Y-8564571D01*
X82962904Y-8516952D01*
X82915285Y-8469333D01*
X82867666Y-8374095D01*
X82867666Y-8278857D01*
X82915285Y-8183619D01*
X82962904Y-8136000D01*
X83058142Y-8088380D01*
X83296238Y-8088380D01*
X83439095Y-8136000D01*
X83772428Y-8088380D02*
X84010523Y-9088380D01*
X84201000Y-8374095D01*
X84391476Y-9088380D01*
X84629571Y-8088380D01*
X85439095Y-8421714D02*
X85439095Y-9088380D01*
X85201000Y-8040761D02*
X84962904Y-8755047D01*
X85581952Y-8755047D01*
%TO.C,SW5*%
X101917666Y-9040761D02*
X102060523Y-9088380D01*
X102298619Y-9088380D01*
X102393857Y-9040761D01*
X102441476Y-8993142D01*
X102489095Y-8897904D01*
X102489095Y-8802666D01*
X102441476Y-8707428D01*
X102393857Y-8659809D01*
X102298619Y-8612190D01*
X102108142Y-8564571D01*
X102012904Y-8516952D01*
X101965285Y-8469333D01*
X101917666Y-8374095D01*
X101917666Y-8278857D01*
X101965285Y-8183619D01*
X102012904Y-8136000D01*
X102108142Y-8088380D01*
X102346238Y-8088380D01*
X102489095Y-8136000D01*
X102822428Y-8088380D02*
X103060523Y-9088380D01*
X103251000Y-8374095D01*
X103441476Y-9088380D01*
X103679571Y-8088380D01*
X104536714Y-8088380D02*
X104060523Y-8088380D01*
X104012904Y-8564571D01*
X104060523Y-8516952D01*
X104155761Y-8469333D01*
X104393857Y-8469333D01*
X104489095Y-8516952D01*
X104536714Y-8564571D01*
X104584333Y-8659809D01*
X104584333Y-8897904D01*
X104536714Y-8993142D01*
X104489095Y-9040761D01*
X104393857Y-9088380D01*
X104155761Y-9088380D01*
X104060523Y-9040761D01*
X104012904Y-8993142D01*
%TO.C,SW16*%
X120491476Y-28090761D02*
X120634333Y-28138380D01*
X120872428Y-28138380D01*
X120967666Y-28090761D01*
X121015285Y-28043142D01*
X121062904Y-27947904D01*
X121062904Y-27852666D01*
X121015285Y-27757428D01*
X120967666Y-27709809D01*
X120872428Y-27662190D01*
X120681952Y-27614571D01*
X120586714Y-27566952D01*
X120539095Y-27519333D01*
X120491476Y-27424095D01*
X120491476Y-27328857D01*
X120539095Y-27233619D01*
X120586714Y-27186000D01*
X120681952Y-27138380D01*
X120920047Y-27138380D01*
X121062904Y-27186000D01*
X121396238Y-27138380D02*
X121634333Y-28138380D01*
X121824809Y-27424095D01*
X122015285Y-28138380D01*
X122253380Y-27138380D01*
X123158142Y-28138380D02*
X122586714Y-28138380D01*
X122872428Y-28138380D02*
X122872428Y-27138380D01*
X122777190Y-27281238D01*
X122681952Y-27376476D01*
X122586714Y-27424095D01*
X124015285Y-27138380D02*
X123824809Y-27138380D01*
X123729571Y-27186000D01*
X123681952Y-27233619D01*
X123586714Y-27376476D01*
X123539095Y-27566952D01*
X123539095Y-27947904D01*
X123586714Y-28043142D01*
X123634333Y-28090761D01*
X123729571Y-28138380D01*
X123920047Y-28138380D01*
X124015285Y-28090761D01*
X124062904Y-28043142D01*
X124110523Y-27947904D01*
X124110523Y-27709809D01*
X124062904Y-27614571D01*
X124015285Y-27566952D01*
X123920047Y-27519333D01*
X123729571Y-27519333D01*
X123634333Y-27566952D01*
X123586714Y-27614571D01*
X123539095Y-27709809D01*
%TO.C,SW32*%
X187166476Y-66190761D02*
X187309333Y-66238380D01*
X187547428Y-66238380D01*
X187642666Y-66190761D01*
X187690285Y-66143142D01*
X187737904Y-66047904D01*
X187737904Y-65952666D01*
X187690285Y-65857428D01*
X187642666Y-65809809D01*
X187547428Y-65762190D01*
X187356952Y-65714571D01*
X187261714Y-65666952D01*
X187214095Y-65619333D01*
X187166476Y-65524095D01*
X187166476Y-65428857D01*
X187214095Y-65333619D01*
X187261714Y-65286000D01*
X187356952Y-65238380D01*
X187595047Y-65238380D01*
X187737904Y-65286000D01*
X188071238Y-65238380D02*
X188309333Y-66238380D01*
X188499809Y-65524095D01*
X188690285Y-66238380D01*
X188928380Y-65238380D01*
X189214095Y-65238380D02*
X189833142Y-65238380D01*
X189499809Y-65619333D01*
X189642666Y-65619333D01*
X189737904Y-65666952D01*
X189785523Y-65714571D01*
X189833142Y-65809809D01*
X189833142Y-66047904D01*
X189785523Y-66143142D01*
X189737904Y-66190761D01*
X189642666Y-66238380D01*
X189356952Y-66238380D01*
X189261714Y-66190761D01*
X189214095Y-66143142D01*
X190214095Y-65333619D02*
X190261714Y-65286000D01*
X190356952Y-65238380D01*
X190595047Y-65238380D01*
X190690285Y-65286000D01*
X190737904Y-65333619D01*
X190785523Y-65428857D01*
X190785523Y-65524095D01*
X190737904Y-65666952D01*
X190166476Y-66238380D01*
X190785523Y-66238380D01*
%TO.C,SW2*%
X44767666Y-9040761D02*
X44910523Y-9088380D01*
X45148619Y-9088380D01*
X45243857Y-9040761D01*
X45291476Y-8993142D01*
X45339095Y-8897904D01*
X45339095Y-8802666D01*
X45291476Y-8707428D01*
X45243857Y-8659809D01*
X45148619Y-8612190D01*
X44958142Y-8564571D01*
X44862904Y-8516952D01*
X44815285Y-8469333D01*
X44767666Y-8374095D01*
X44767666Y-8278857D01*
X44815285Y-8183619D01*
X44862904Y-8136000D01*
X44958142Y-8088380D01*
X45196238Y-8088380D01*
X45339095Y-8136000D01*
X45672428Y-8088380D02*
X45910523Y-9088380D01*
X46101000Y-8374095D01*
X46291476Y-9088380D01*
X46529571Y-8088380D01*
X46862904Y-8183619D02*
X46910523Y-8136000D01*
X47005761Y-8088380D01*
X47243857Y-8088380D01*
X47339095Y-8136000D01*
X47386714Y-8183619D01*
X47434333Y-8278857D01*
X47434333Y-8374095D01*
X47386714Y-8516952D01*
X46815285Y-9088380D01*
X47434333Y-9088380D01*
%TO.C,SW10*%
X196691476Y-9040761D02*
X196834333Y-9088380D01*
X197072428Y-9088380D01*
X197167666Y-9040761D01*
X197215285Y-8993142D01*
X197262904Y-8897904D01*
X197262904Y-8802666D01*
X197215285Y-8707428D01*
X197167666Y-8659809D01*
X197072428Y-8612190D01*
X196881952Y-8564571D01*
X196786714Y-8516952D01*
X196739095Y-8469333D01*
X196691476Y-8374095D01*
X196691476Y-8278857D01*
X196739095Y-8183619D01*
X196786714Y-8136000D01*
X196881952Y-8088380D01*
X197120047Y-8088380D01*
X197262904Y-8136000D01*
X197596238Y-8088380D02*
X197834333Y-9088380D01*
X198024809Y-8374095D01*
X198215285Y-9088380D01*
X198453380Y-8088380D01*
X199358142Y-9088380D02*
X198786714Y-9088380D01*
X199072428Y-9088380D02*
X199072428Y-8088380D01*
X198977190Y-8231238D01*
X198881952Y-8326476D01*
X198786714Y-8374095D01*
X199977190Y-8088380D02*
X200072428Y-8088380D01*
X200167666Y-8136000D01*
X200215285Y-8183619D01*
X200262904Y-8278857D01*
X200310523Y-8469333D01*
X200310523Y-8707428D01*
X200262904Y-8897904D01*
X200215285Y-8993142D01*
X200167666Y-9040761D01*
X200072428Y-9088380D01*
X199977190Y-9088380D01*
X199881952Y-9040761D01*
X199834333Y-8993142D01*
X199786714Y-8897904D01*
X199739095Y-8707428D01*
X199739095Y-8469333D01*
X199786714Y-8278857D01*
X199834333Y-8183619D01*
X199881952Y-8136000D01*
X199977190Y-8088380D01*
%TO.C,SW15*%
X101441476Y-28090761D02*
X101584333Y-28138380D01*
X101822428Y-28138380D01*
X101917666Y-28090761D01*
X101965285Y-28043142D01*
X102012904Y-27947904D01*
X102012904Y-27852666D01*
X101965285Y-27757428D01*
X101917666Y-27709809D01*
X101822428Y-27662190D01*
X101631952Y-27614571D01*
X101536714Y-27566952D01*
X101489095Y-27519333D01*
X101441476Y-27424095D01*
X101441476Y-27328857D01*
X101489095Y-27233619D01*
X101536714Y-27186000D01*
X101631952Y-27138380D01*
X101870047Y-27138380D01*
X102012904Y-27186000D01*
X102346238Y-27138380D02*
X102584333Y-28138380D01*
X102774809Y-27424095D01*
X102965285Y-28138380D01*
X103203380Y-27138380D01*
X104108142Y-28138380D02*
X103536714Y-28138380D01*
X103822428Y-28138380D02*
X103822428Y-27138380D01*
X103727190Y-27281238D01*
X103631952Y-27376476D01*
X103536714Y-27424095D01*
X105012904Y-27138380D02*
X104536714Y-27138380D01*
X104489095Y-27614571D01*
X104536714Y-27566952D01*
X104631952Y-27519333D01*
X104870047Y-27519333D01*
X104965285Y-27566952D01*
X105012904Y-27614571D01*
X105060523Y-27709809D01*
X105060523Y-27947904D01*
X105012904Y-28043142D01*
X104965285Y-28090761D01*
X104870047Y-28138380D01*
X104631952Y-28138380D01*
X104536714Y-28090761D01*
X104489095Y-28043142D01*
%TO.C,SW18*%
X158591476Y-28090761D02*
X158734333Y-28138380D01*
X158972428Y-28138380D01*
X159067666Y-28090761D01*
X159115285Y-28043142D01*
X159162904Y-27947904D01*
X159162904Y-27852666D01*
X159115285Y-27757428D01*
X159067666Y-27709809D01*
X158972428Y-27662190D01*
X158781952Y-27614571D01*
X158686714Y-27566952D01*
X158639095Y-27519333D01*
X158591476Y-27424095D01*
X158591476Y-27328857D01*
X158639095Y-27233619D01*
X158686714Y-27186000D01*
X158781952Y-27138380D01*
X159020047Y-27138380D01*
X159162904Y-27186000D01*
X159496238Y-27138380D02*
X159734333Y-28138380D01*
X159924809Y-27424095D01*
X160115285Y-28138380D01*
X160353380Y-27138380D01*
X161258142Y-28138380D02*
X160686714Y-28138380D01*
X160972428Y-28138380D02*
X160972428Y-27138380D01*
X160877190Y-27281238D01*
X160781952Y-27376476D01*
X160686714Y-27424095D01*
X161829571Y-27566952D02*
X161734333Y-27519333D01*
X161686714Y-27471714D01*
X161639095Y-27376476D01*
X161639095Y-27328857D01*
X161686714Y-27233619D01*
X161734333Y-27186000D01*
X161829571Y-27138380D01*
X162020047Y-27138380D01*
X162115285Y-27186000D01*
X162162904Y-27233619D01*
X162210523Y-27328857D01*
X162210523Y-27376476D01*
X162162904Y-27471714D01*
X162115285Y-27519333D01*
X162020047Y-27566952D01*
X161829571Y-27566952D01*
X161734333Y-27614571D01*
X161686714Y-27662190D01*
X161639095Y-27757428D01*
X161639095Y-27947904D01*
X161686714Y-28043142D01*
X161734333Y-28090761D01*
X161829571Y-28138380D01*
X162020047Y-28138380D01*
X162115285Y-28090761D01*
X162162904Y-28043142D01*
X162210523Y-27947904D01*
X162210523Y-27757428D01*
X162162904Y-27662190D01*
X162115285Y-27614571D01*
X162020047Y-27566952D01*
%TO.C,SW3*%
X63817666Y-9040761D02*
X63960523Y-9088380D01*
X64198619Y-9088380D01*
X64293857Y-9040761D01*
X64341476Y-8993142D01*
X64389095Y-8897904D01*
X64389095Y-8802666D01*
X64341476Y-8707428D01*
X64293857Y-8659809D01*
X64198619Y-8612190D01*
X64008142Y-8564571D01*
X63912904Y-8516952D01*
X63865285Y-8469333D01*
X63817666Y-8374095D01*
X63817666Y-8278857D01*
X63865285Y-8183619D01*
X63912904Y-8136000D01*
X64008142Y-8088380D01*
X64246238Y-8088380D01*
X64389095Y-8136000D01*
X64722428Y-8088380D02*
X64960523Y-9088380D01*
X65151000Y-8374095D01*
X65341476Y-9088380D01*
X65579571Y-8088380D01*
X65865285Y-8088380D02*
X66484333Y-8088380D01*
X66151000Y-8469333D01*
X66293857Y-8469333D01*
X66389095Y-8516952D01*
X66436714Y-8564571D01*
X66484333Y-8659809D01*
X66484333Y-8897904D01*
X66436714Y-8993142D01*
X66389095Y-9040761D01*
X66293857Y-9088380D01*
X66008142Y-9088380D01*
X65912904Y-9040761D01*
X65865285Y-8993142D01*
%TO.C,GND*%
X85254095Y-72507000D02*
X85158857Y-72459380D01*
X85016000Y-72459380D01*
X84873142Y-72507000D01*
X84777904Y-72602238D01*
X84730285Y-72697476D01*
X84682666Y-72887952D01*
X84682666Y-73030809D01*
X84730285Y-73221285D01*
X84777904Y-73316523D01*
X84873142Y-73411761D01*
X85016000Y-73459380D01*
X85111238Y-73459380D01*
X85254095Y-73411761D01*
X85301714Y-73364142D01*
X85301714Y-73030809D01*
X85111238Y-73030809D01*
X85730285Y-73459380D02*
X85730285Y-72459380D01*
X86301714Y-73459380D01*
X86301714Y-72459380D01*
X86777904Y-73459380D02*
X86777904Y-72459380D01*
X87016000Y-72459380D01*
X87158857Y-72507000D01*
X87254095Y-72602238D01*
X87301714Y-72697476D01*
X87349333Y-72887952D01*
X87349333Y-73030809D01*
X87301714Y-73221285D01*
X87254095Y-73316523D01*
X87158857Y-73411761D01*
X87016000Y-73459380D01*
X86777904Y-73459380D01*
%TO.C,Reset*%
X80227904Y-73459380D02*
X79894571Y-72983190D01*
X79656476Y-73459380D02*
X79656476Y-72459380D01*
X80037428Y-72459380D01*
X80132666Y-72507000D01*
X80180285Y-72554619D01*
X80227904Y-72649857D01*
X80227904Y-72792714D01*
X80180285Y-72887952D01*
X80132666Y-72935571D01*
X80037428Y-72983190D01*
X79656476Y-72983190D01*
X81037428Y-73411761D02*
X80942190Y-73459380D01*
X80751714Y-73459380D01*
X80656476Y-73411761D01*
X80608857Y-73316523D01*
X80608857Y-72935571D01*
X80656476Y-72840333D01*
X80751714Y-72792714D01*
X80942190Y-72792714D01*
X81037428Y-72840333D01*
X81085047Y-72935571D01*
X81085047Y-73030809D01*
X80608857Y-73126047D01*
X81466000Y-73411761D02*
X81561238Y-73459380D01*
X81751714Y-73459380D01*
X81846952Y-73411761D01*
X81894571Y-73316523D01*
X81894571Y-73268904D01*
X81846952Y-73173666D01*
X81751714Y-73126047D01*
X81608857Y-73126047D01*
X81513619Y-73078428D01*
X81466000Y-72983190D01*
X81466000Y-72935571D01*
X81513619Y-72840333D01*
X81608857Y-72792714D01*
X81751714Y-72792714D01*
X81846952Y-72840333D01*
X82704095Y-73411761D02*
X82608857Y-73459380D01*
X82418380Y-73459380D01*
X82323142Y-73411761D01*
X82275523Y-73316523D01*
X82275523Y-72935571D01*
X82323142Y-72840333D01*
X82418380Y-72792714D01*
X82608857Y-72792714D01*
X82704095Y-72840333D01*
X82751714Y-72935571D01*
X82751714Y-73030809D01*
X82275523Y-73126047D01*
X83037428Y-72792714D02*
X83418380Y-72792714D01*
X83180285Y-72459380D02*
X83180285Y-73316523D01*
X83227904Y-73411761D01*
X83323142Y-73459380D01*
X83418380Y-73459380D01*
%TO.C,SW13*%
X63341476Y-28090761D02*
X63484333Y-28138380D01*
X63722428Y-28138380D01*
X63817666Y-28090761D01*
X63865285Y-28043142D01*
X63912904Y-27947904D01*
X63912904Y-27852666D01*
X63865285Y-27757428D01*
X63817666Y-27709809D01*
X63722428Y-27662190D01*
X63531952Y-27614571D01*
X63436714Y-27566952D01*
X63389095Y-27519333D01*
X63341476Y-27424095D01*
X63341476Y-27328857D01*
X63389095Y-27233619D01*
X63436714Y-27186000D01*
X63531952Y-27138380D01*
X63770047Y-27138380D01*
X63912904Y-27186000D01*
X64246238Y-27138380D02*
X64484333Y-28138380D01*
X64674809Y-27424095D01*
X64865285Y-28138380D01*
X65103380Y-27138380D01*
X66008142Y-28138380D02*
X65436714Y-28138380D01*
X65722428Y-28138380D02*
X65722428Y-27138380D01*
X65627190Y-27281238D01*
X65531952Y-27376476D01*
X65436714Y-27424095D01*
X66341476Y-27138380D02*
X66960523Y-27138380D01*
X66627190Y-27519333D01*
X66770047Y-27519333D01*
X66865285Y-27566952D01*
X66912904Y-27614571D01*
X66960523Y-27709809D01*
X66960523Y-27947904D01*
X66912904Y-28043142D01*
X66865285Y-28090761D01*
X66770047Y-28138380D01*
X66484333Y-28138380D01*
X66389095Y-28090761D01*
X66341476Y-28043142D01*
%TO.C,SW31*%
X110966476Y-66190761D02*
X111109333Y-66238380D01*
X111347428Y-66238380D01*
X111442666Y-66190761D01*
X111490285Y-66143142D01*
X111537904Y-66047904D01*
X111537904Y-65952666D01*
X111490285Y-65857428D01*
X111442666Y-65809809D01*
X111347428Y-65762190D01*
X111156952Y-65714571D01*
X111061714Y-65666952D01*
X111014095Y-65619333D01*
X110966476Y-65524095D01*
X110966476Y-65428857D01*
X111014095Y-65333619D01*
X111061714Y-65286000D01*
X111156952Y-65238380D01*
X111395047Y-65238380D01*
X111537904Y-65286000D01*
X111871238Y-65238380D02*
X112109333Y-66238380D01*
X112299809Y-65524095D01*
X112490285Y-66238380D01*
X112728380Y-65238380D01*
X113014095Y-65238380D02*
X113633142Y-65238380D01*
X113299809Y-65619333D01*
X113442666Y-65619333D01*
X113537904Y-65666952D01*
X113585523Y-65714571D01*
X113633142Y-65809809D01*
X113633142Y-66047904D01*
X113585523Y-66143142D01*
X113537904Y-66190761D01*
X113442666Y-66238380D01*
X113156952Y-66238380D01*
X113061714Y-66190761D01*
X113014095Y-66143142D01*
X114585523Y-66238380D02*
X114014095Y-66238380D01*
X114299809Y-66238380D02*
X114299809Y-65238380D01*
X114204571Y-65381238D01*
X114109333Y-65476476D01*
X114014095Y-65524095D01*
%TO.C,SW7*%
X140017666Y-9040761D02*
X140160523Y-9088380D01*
X140398619Y-9088380D01*
X140493857Y-9040761D01*
X140541476Y-8993142D01*
X140589095Y-8897904D01*
X140589095Y-8802666D01*
X140541476Y-8707428D01*
X140493857Y-8659809D01*
X140398619Y-8612190D01*
X140208142Y-8564571D01*
X140112904Y-8516952D01*
X140065285Y-8469333D01*
X140017666Y-8374095D01*
X140017666Y-8278857D01*
X140065285Y-8183619D01*
X140112904Y-8136000D01*
X140208142Y-8088380D01*
X140446238Y-8088380D01*
X140589095Y-8136000D01*
X140922428Y-8088380D02*
X141160523Y-9088380D01*
X141351000Y-8374095D01*
X141541476Y-9088380D01*
X141779571Y-8088380D01*
X142065285Y-8088380D02*
X142731952Y-8088380D01*
X142303380Y-9088380D01*
%TO.C,SW23*%
X72866476Y-47140761D02*
X73009333Y-47188380D01*
X73247428Y-47188380D01*
X73342666Y-47140761D01*
X73390285Y-47093142D01*
X73437904Y-46997904D01*
X73437904Y-46902666D01*
X73390285Y-46807428D01*
X73342666Y-46759809D01*
X73247428Y-46712190D01*
X73056952Y-46664571D01*
X72961714Y-46616952D01*
X72914095Y-46569333D01*
X72866476Y-46474095D01*
X72866476Y-46378857D01*
X72914095Y-46283619D01*
X72961714Y-46236000D01*
X73056952Y-46188380D01*
X73295047Y-46188380D01*
X73437904Y-46236000D01*
X73771238Y-46188380D02*
X74009333Y-47188380D01*
X74199809Y-46474095D01*
X74390285Y-47188380D01*
X74628380Y-46188380D01*
X74961714Y-46283619D02*
X75009333Y-46236000D01*
X75104571Y-46188380D01*
X75342666Y-46188380D01*
X75437904Y-46236000D01*
X75485523Y-46283619D01*
X75533142Y-46378857D01*
X75533142Y-46474095D01*
X75485523Y-46616952D01*
X74914095Y-47188380D01*
X75533142Y-47188380D01*
X75866476Y-46188380D02*
X76485523Y-46188380D01*
X76152190Y-46569333D01*
X76295047Y-46569333D01*
X76390285Y-46616952D01*
X76437904Y-46664571D01*
X76485523Y-46759809D01*
X76485523Y-46997904D01*
X76437904Y-47093142D01*
X76390285Y-47140761D01*
X76295047Y-47188380D01*
X76009333Y-47188380D01*
X75914095Y-47140761D01*
X75866476Y-47093142D01*
%TO.C,SW22*%
X53816476Y-47140761D02*
X53959333Y-47188380D01*
X54197428Y-47188380D01*
X54292666Y-47140761D01*
X54340285Y-47093142D01*
X54387904Y-46997904D01*
X54387904Y-46902666D01*
X54340285Y-46807428D01*
X54292666Y-46759809D01*
X54197428Y-46712190D01*
X54006952Y-46664571D01*
X53911714Y-46616952D01*
X53864095Y-46569333D01*
X53816476Y-46474095D01*
X53816476Y-46378857D01*
X53864095Y-46283619D01*
X53911714Y-46236000D01*
X54006952Y-46188380D01*
X54245047Y-46188380D01*
X54387904Y-46236000D01*
X54721238Y-46188380D02*
X54959333Y-47188380D01*
X55149809Y-46474095D01*
X55340285Y-47188380D01*
X55578380Y-46188380D01*
X55911714Y-46283619D02*
X55959333Y-46236000D01*
X56054571Y-46188380D01*
X56292666Y-46188380D01*
X56387904Y-46236000D01*
X56435523Y-46283619D01*
X56483142Y-46378857D01*
X56483142Y-46474095D01*
X56435523Y-46616952D01*
X55864095Y-47188380D01*
X56483142Y-47188380D01*
X56864095Y-46283619D02*
X56911714Y-46236000D01*
X57006952Y-46188380D01*
X57245047Y-46188380D01*
X57340285Y-46236000D01*
X57387904Y-46283619D01*
X57435523Y-46378857D01*
X57435523Y-46474095D01*
X57387904Y-46616952D01*
X56816476Y-47188380D01*
X57435523Y-47188380D01*
%TO.C,SW12*%
X44291476Y-28090761D02*
X44434333Y-28138380D01*
X44672428Y-28138380D01*
X44767666Y-28090761D01*
X44815285Y-28043142D01*
X44862904Y-27947904D01*
X44862904Y-27852666D01*
X44815285Y-27757428D01*
X44767666Y-27709809D01*
X44672428Y-27662190D01*
X44481952Y-27614571D01*
X44386714Y-27566952D01*
X44339095Y-27519333D01*
X44291476Y-27424095D01*
X44291476Y-27328857D01*
X44339095Y-27233619D01*
X44386714Y-27186000D01*
X44481952Y-27138380D01*
X44720047Y-27138380D01*
X44862904Y-27186000D01*
X45196238Y-27138380D02*
X45434333Y-28138380D01*
X45624809Y-27424095D01*
X45815285Y-28138380D01*
X46053380Y-27138380D01*
X46958142Y-28138380D02*
X46386714Y-28138380D01*
X46672428Y-28138380D02*
X46672428Y-27138380D01*
X46577190Y-27281238D01*
X46481952Y-27376476D01*
X46386714Y-27424095D01*
X47339095Y-27233619D02*
X47386714Y-27186000D01*
X47481952Y-27138380D01*
X47720047Y-27138380D01*
X47815285Y-27186000D01*
X47862904Y-27233619D01*
X47910523Y-27328857D01*
X47910523Y-27424095D01*
X47862904Y-27566952D01*
X47291476Y-28138380D01*
X47910523Y-28138380D01*
%TO.C,SW25*%
X110966476Y-47140761D02*
X111109333Y-47188380D01*
X111347428Y-47188380D01*
X111442666Y-47140761D01*
X111490285Y-47093142D01*
X111537904Y-46997904D01*
X111537904Y-46902666D01*
X111490285Y-46807428D01*
X111442666Y-46759809D01*
X111347428Y-46712190D01*
X111156952Y-46664571D01*
X111061714Y-46616952D01*
X111014095Y-46569333D01*
X110966476Y-46474095D01*
X110966476Y-46378857D01*
X111014095Y-46283619D01*
X111061714Y-46236000D01*
X111156952Y-46188380D01*
X111395047Y-46188380D01*
X111537904Y-46236000D01*
X111871238Y-46188380D02*
X112109333Y-47188380D01*
X112299809Y-46474095D01*
X112490285Y-47188380D01*
X112728380Y-46188380D01*
X113061714Y-46283619D02*
X113109333Y-46236000D01*
X113204571Y-46188380D01*
X113442666Y-46188380D01*
X113537904Y-46236000D01*
X113585523Y-46283619D01*
X113633142Y-46378857D01*
X113633142Y-46474095D01*
X113585523Y-46616952D01*
X113014095Y-47188380D01*
X113633142Y-47188380D01*
X114537904Y-46188380D02*
X114061714Y-46188380D01*
X114014095Y-46664571D01*
X114061714Y-46616952D01*
X114156952Y-46569333D01*
X114395047Y-46569333D01*
X114490285Y-46616952D01*
X114537904Y-46664571D01*
X114585523Y-46759809D01*
X114585523Y-46997904D01*
X114537904Y-47093142D01*
X114490285Y-47140761D01*
X114395047Y-47188380D01*
X114156952Y-47188380D01*
X114061714Y-47140761D01*
X114014095Y-47093142D01*
%TO.C,SW21*%
X30003976Y-47140761D02*
X30146833Y-47188380D01*
X30384928Y-47188380D01*
X30480166Y-47140761D01*
X30527785Y-47093142D01*
X30575404Y-46997904D01*
X30575404Y-46902666D01*
X30527785Y-46807428D01*
X30480166Y-46759809D01*
X30384928Y-46712190D01*
X30194452Y-46664571D01*
X30099214Y-46616952D01*
X30051595Y-46569333D01*
X30003976Y-46474095D01*
X30003976Y-46378857D01*
X30051595Y-46283619D01*
X30099214Y-46236000D01*
X30194452Y-46188380D01*
X30432547Y-46188380D01*
X30575404Y-46236000D01*
X30908738Y-46188380D02*
X31146833Y-47188380D01*
X31337309Y-46474095D01*
X31527785Y-47188380D01*
X31765880Y-46188380D01*
X32099214Y-46283619D02*
X32146833Y-46236000D01*
X32242071Y-46188380D01*
X32480166Y-46188380D01*
X32575404Y-46236000D01*
X32623023Y-46283619D01*
X32670642Y-46378857D01*
X32670642Y-46474095D01*
X32623023Y-46616952D01*
X32051595Y-47188380D01*
X32670642Y-47188380D01*
X33623023Y-47188380D02*
X33051595Y-47188380D01*
X33337309Y-47188380D02*
X33337309Y-46188380D01*
X33242071Y-46331238D01*
X33146833Y-46426476D01*
X33051595Y-46474095D01*
%TO.C,SW30*%
X34766476Y-66190761D02*
X34909333Y-66238380D01*
X35147428Y-66238380D01*
X35242666Y-66190761D01*
X35290285Y-66143142D01*
X35337904Y-66047904D01*
X35337904Y-65952666D01*
X35290285Y-65857428D01*
X35242666Y-65809809D01*
X35147428Y-65762190D01*
X34956952Y-65714571D01*
X34861714Y-65666952D01*
X34814095Y-65619333D01*
X34766476Y-65524095D01*
X34766476Y-65428857D01*
X34814095Y-65333619D01*
X34861714Y-65286000D01*
X34956952Y-65238380D01*
X35195047Y-65238380D01*
X35337904Y-65286000D01*
X35671238Y-65238380D02*
X35909333Y-66238380D01*
X36099809Y-65524095D01*
X36290285Y-66238380D01*
X36528380Y-65238380D01*
X36814095Y-65238380D02*
X37433142Y-65238380D01*
X37099809Y-65619333D01*
X37242666Y-65619333D01*
X37337904Y-65666952D01*
X37385523Y-65714571D01*
X37433142Y-65809809D01*
X37433142Y-66047904D01*
X37385523Y-66143142D01*
X37337904Y-66190761D01*
X37242666Y-66238380D01*
X36956952Y-66238380D01*
X36861714Y-66190761D01*
X36814095Y-66143142D01*
X38052190Y-65238380D02*
X38147428Y-65238380D01*
X38242666Y-65286000D01*
X38290285Y-65333619D01*
X38337904Y-65428857D01*
X38385523Y-65619333D01*
X38385523Y-65857428D01*
X38337904Y-66047904D01*
X38290285Y-66143142D01*
X38242666Y-66190761D01*
X38147428Y-66238380D01*
X38052190Y-66238380D01*
X37956952Y-66190761D01*
X37909333Y-66143142D01*
X37861714Y-66047904D01*
X37814095Y-65857428D01*
X37814095Y-65619333D01*
X37861714Y-65428857D01*
X37909333Y-65333619D01*
X37956952Y-65286000D01*
X38052190Y-65238380D01*
%TO.C,SW20*%
X196691476Y-28090761D02*
X196834333Y-28138380D01*
X197072428Y-28138380D01*
X197167666Y-28090761D01*
X197215285Y-28043142D01*
X197262904Y-27947904D01*
X197262904Y-27852666D01*
X197215285Y-27757428D01*
X197167666Y-27709809D01*
X197072428Y-27662190D01*
X196881952Y-27614571D01*
X196786714Y-27566952D01*
X196739095Y-27519333D01*
X196691476Y-27424095D01*
X196691476Y-27328857D01*
X196739095Y-27233619D01*
X196786714Y-27186000D01*
X196881952Y-27138380D01*
X197120047Y-27138380D01*
X197262904Y-27186000D01*
X197596238Y-27138380D02*
X197834333Y-28138380D01*
X198024809Y-27424095D01*
X198215285Y-28138380D01*
X198453380Y-27138380D01*
X198786714Y-27233619D02*
X198834333Y-27186000D01*
X198929571Y-27138380D01*
X199167666Y-27138380D01*
X199262904Y-27186000D01*
X199310523Y-27233619D01*
X199358142Y-27328857D01*
X199358142Y-27424095D01*
X199310523Y-27566952D01*
X198739095Y-28138380D01*
X199358142Y-28138380D01*
X199977190Y-27138380D02*
X200072428Y-27138380D01*
X200167666Y-27186000D01*
X200215285Y-27233619D01*
X200262904Y-27328857D01*
X200310523Y-27519333D01*
X200310523Y-27757428D01*
X200262904Y-27947904D01*
X200215285Y-28043142D01*
X200167666Y-28090761D01*
X200072428Y-28138380D01*
X199977190Y-28138380D01*
X199881952Y-28090761D01*
X199834333Y-28043142D01*
X199786714Y-27947904D01*
X199739095Y-27757428D01*
X199739095Y-27519333D01*
X199786714Y-27328857D01*
X199834333Y-27233619D01*
X199881952Y-27186000D01*
X199977190Y-27138380D01*
%TO.C,G\u002A\u002A\u002A*%
G36*
X122420580Y-64720684D02*
G01*
X122568587Y-64635414D01*
X122708482Y-64555172D01*
X122837733Y-64481389D01*
X122953806Y-64415492D01*
X123054170Y-64358910D01*
X123136291Y-64313073D01*
X123197638Y-64279409D01*
X123235676Y-64259348D01*
X123247695Y-64254049D01*
X123263091Y-64261955D01*
X123304568Y-64284960D01*
X123370277Y-64321997D01*
X123458363Y-64371999D01*
X123566977Y-64433899D01*
X123694267Y-64506630D01*
X123838380Y-64589124D01*
X123997466Y-64680314D01*
X124169672Y-64779133D01*
X124353147Y-64884514D01*
X124546040Y-64995390D01*
X124746499Y-65110692D01*
X124952673Y-65229355D01*
X125162709Y-65350311D01*
X125374756Y-65472492D01*
X125586963Y-65594832D01*
X125797477Y-65716263D01*
X126004449Y-65835718D01*
X126206025Y-65952130D01*
X126400354Y-66064432D01*
X126585584Y-66171555D01*
X126759865Y-66272434D01*
X126921344Y-66366001D01*
X127068170Y-66451189D01*
X127198491Y-66526930D01*
X127310456Y-66592157D01*
X127402213Y-66645804D01*
X127471910Y-66686802D01*
X127517696Y-66714085D01*
X127537720Y-66726586D01*
X127538349Y-66727083D01*
X127541910Y-66744260D01*
X127549243Y-66791512D01*
X127560092Y-66866898D01*
X127574199Y-66968470D01*
X127591304Y-67094284D01*
X127611152Y-67242396D01*
X127633482Y-67410861D01*
X127658039Y-67597733D01*
X127684563Y-67801068D01*
X127712797Y-68018922D01*
X127742483Y-68249348D01*
X127773363Y-68490403D01*
X127801910Y-68714420D01*
X127833634Y-68963629D01*
X127864338Y-69204136D01*
X127893767Y-69433979D01*
X127921667Y-69651197D01*
X127947781Y-69853829D01*
X127971856Y-70039915D01*
X127993637Y-70207492D01*
X128012869Y-70354600D01*
X128029296Y-70479278D01*
X128042666Y-70579565D01*
X128052721Y-70653499D01*
X128059208Y-70699120D01*
X128061774Y-70714320D01*
X128065778Y-70703558D01*
X128074072Y-70663709D01*
X128086179Y-70597609D01*
X128101624Y-70508092D01*
X128119932Y-70397992D01*
X128140627Y-70270145D01*
X128163233Y-70127385D01*
X128187275Y-69972546D01*
X128198481Y-69899390D01*
X128223172Y-69738668D01*
X128246717Y-69587643D01*
X128268623Y-69449313D01*
X128288399Y-69326675D01*
X128305555Y-69222726D01*
X128319600Y-69140464D01*
X128330042Y-69082887D01*
X128336391Y-69052991D01*
X128337704Y-69049424D01*
X128354941Y-69038219D01*
X128396996Y-69013106D01*
X128460824Y-68975814D01*
X128543379Y-68928068D01*
X128641616Y-68871595D01*
X128752490Y-68808123D01*
X128872955Y-68739377D01*
X128999966Y-68667085D01*
X129130478Y-68592973D01*
X129261445Y-68518768D01*
X129389822Y-68446196D01*
X129512564Y-68376985D01*
X129626626Y-68312861D01*
X129728962Y-68255551D01*
X129816526Y-68206781D01*
X129886274Y-68168279D01*
X129935160Y-68141770D01*
X129960139Y-68128982D01*
X129962658Y-68128067D01*
X129978235Y-68136073D01*
X130020197Y-68159376D01*
X130087003Y-68197089D01*
X130177112Y-68248329D01*
X130288983Y-68312209D01*
X130421076Y-68387845D01*
X130571850Y-68474353D01*
X130739764Y-68570847D01*
X130923278Y-68676442D01*
X131120850Y-68790254D01*
X131330940Y-68911398D01*
X131552008Y-69038988D01*
X131782512Y-69172140D01*
X132020912Y-69309969D01*
X132076635Y-69342201D01*
X132317296Y-69481420D01*
X132550791Y-69616490D01*
X132775548Y-69746501D01*
X132989993Y-69870544D01*
X133192553Y-69987708D01*
X133381655Y-70097084D01*
X133555725Y-70197763D01*
X133713190Y-70288833D01*
X133852477Y-70369384D01*
X133972013Y-70438509D01*
X134070224Y-70495295D01*
X134145537Y-70538833D01*
X134196379Y-70568214D01*
X134221177Y-70582528D01*
X134222887Y-70583511D01*
X134271299Y-70611237D01*
X134279367Y-73714374D01*
X134287436Y-76817512D01*
X134787690Y-77108167D01*
X134903885Y-77175464D01*
X135011867Y-77237597D01*
X135108320Y-77292687D01*
X135189926Y-77338858D01*
X135253370Y-77374232D01*
X135295335Y-77396932D01*
X135312150Y-77405016D01*
X135331220Y-77398580D01*
X135374817Y-77377531D01*
X135439665Y-77343647D01*
X135522486Y-77298705D01*
X135620006Y-77244483D01*
X135728948Y-77182758D01*
X135844679Y-77116095D01*
X136353001Y-76820979D01*
X136361070Y-72168619D01*
X136369139Y-67516258D01*
X137998999Y-66571638D01*
X138065544Y-66605654D01*
X138092024Y-66620130D01*
X138143560Y-66649174D01*
X138217300Y-66691151D01*
X138310389Y-66744421D01*
X138419972Y-66807348D01*
X138543197Y-66878295D01*
X138677210Y-66955624D01*
X138819156Y-67037697D01*
X138884227Y-67075375D01*
X139636367Y-67511080D01*
X139636647Y-73106293D01*
X139636928Y-78701505D01*
X139600619Y-78724030D01*
X139584647Y-78733328D01*
X139542166Y-78757895D01*
X139474633Y-78796891D01*
X139383504Y-78849476D01*
X139270239Y-78914810D01*
X139136293Y-78992054D01*
X138983125Y-79080369D01*
X138812192Y-79178914D01*
X138624951Y-79286849D01*
X138422860Y-79403335D01*
X138207376Y-79527533D01*
X137979957Y-79658602D01*
X137742060Y-79795703D01*
X137495142Y-79937996D01*
X137240662Y-80084641D01*
X136980076Y-80234799D01*
X136714841Y-80387630D01*
X136446416Y-80542294D01*
X136176258Y-80697952D01*
X135905824Y-80853763D01*
X135636571Y-81008888D01*
X135369958Y-81162488D01*
X135107441Y-81313723D01*
X134850478Y-81461752D01*
X134600526Y-81605736D01*
X134359044Y-81744836D01*
X134127487Y-81878212D01*
X133907314Y-82005024D01*
X133699982Y-82124432D01*
X133506949Y-82235597D01*
X133329671Y-82337679D01*
X133169607Y-82429838D01*
X133028214Y-82511234D01*
X132906949Y-82581029D01*
X132807270Y-82638381D01*
X132730634Y-82682451D01*
X132678499Y-82712401D01*
X132652322Y-82727389D01*
X132649507Y-82728974D01*
X132634450Y-82721922D01*
X132594002Y-82700081D01*
X132530679Y-82664880D01*
X132446997Y-82617744D01*
X132345470Y-82560100D01*
X132228614Y-82493376D01*
X132098944Y-82418998D01*
X131958975Y-82338393D01*
X131850714Y-82275846D01*
X131703929Y-82190913D01*
X131565003Y-82110503D01*
X131436541Y-82036124D01*
X131321150Y-81969287D01*
X131221434Y-81911502D01*
X131140000Y-81864277D01*
X131079451Y-81829123D01*
X131042394Y-81807549D01*
X131031790Y-81801314D01*
X131028429Y-81798072D01*
X131025342Y-81791699D01*
X131022513Y-81780860D01*
X131019930Y-81764221D01*
X131017578Y-81740448D01*
X131015446Y-81708207D01*
X131013518Y-81666164D01*
X131011781Y-81612985D01*
X131010222Y-81547335D01*
X131008827Y-81467881D01*
X131007582Y-81373288D01*
X131006475Y-81262223D01*
X131005490Y-81133350D01*
X131004615Y-80985337D01*
X131003837Y-80816849D01*
X131003141Y-80626551D01*
X131002514Y-80413110D01*
X131001942Y-80175192D01*
X131001412Y-79911463D01*
X131000910Y-79620588D01*
X131000422Y-79301233D01*
X130999936Y-78952065D01*
X130999516Y-78633010D01*
X130995441Y-75481782D01*
X130610007Y-77467206D01*
X130561760Y-77715602D01*
X130515154Y-77955303D01*
X130470563Y-78184394D01*
X130428362Y-78400958D01*
X130388927Y-78603077D01*
X130352632Y-78788835D01*
X130319853Y-78956315D01*
X130290965Y-79103600D01*
X130266344Y-79228774D01*
X130246363Y-79329919D01*
X130231399Y-79405120D01*
X130221827Y-79452458D01*
X130218025Y-79470005D01*
X130203225Y-79481076D01*
X130162959Y-79506751D01*
X130099733Y-79545537D01*
X130016053Y-79595940D01*
X129914427Y-79656465D01*
X129797360Y-79725617D01*
X129667359Y-79801903D01*
X129526929Y-79883828D01*
X129413611Y-79949616D01*
X128615743Y-80411851D01*
X127142949Y-79562394D01*
X126942458Y-79446749D01*
X126749913Y-79335670D01*
X126567147Y-79230214D01*
X126395991Y-79131442D01*
X126238280Y-79040409D01*
X126095844Y-78958175D01*
X125970518Y-78885798D01*
X125864133Y-78824336D01*
X125778522Y-78774847D01*
X125715518Y-78738389D01*
X125676953Y-78716020D01*
X125664632Y-78708794D01*
X125661539Y-78692664D01*
X125653715Y-78646385D01*
X125641439Y-78571691D01*
X125624986Y-78470318D01*
X125604632Y-78344000D01*
X125580656Y-78194471D01*
X125553332Y-78023467D01*
X125522939Y-77832722D01*
X125489752Y-77623970D01*
X125454048Y-77398947D01*
X125416104Y-77159386D01*
X125376197Y-76907024D01*
X125334603Y-76643594D01*
X125291598Y-76370830D01*
X125277339Y-76280297D01*
X124895568Y-73855944D01*
X124891435Y-75107253D01*
X124890530Y-75348800D01*
X124889491Y-75559815D01*
X124888286Y-75742045D01*
X124886882Y-75897232D01*
X124885245Y-76027120D01*
X124883341Y-76133453D01*
X124881138Y-76217975D01*
X124878603Y-76282430D01*
X124875701Y-76328563D01*
X124872399Y-76358116D01*
X124868665Y-76372833D01*
X124867229Y-76374819D01*
X124847108Y-76387939D01*
X124802676Y-76414867D01*
X124736945Y-76453870D01*
X124652926Y-76503216D01*
X124553629Y-76561173D01*
X124442067Y-76626009D01*
X124321250Y-76695990D01*
X124194188Y-76769386D01*
X124063895Y-76844463D01*
X123933379Y-76919490D01*
X123805653Y-76992734D01*
X123683728Y-77062463D01*
X123570614Y-77126944D01*
X123469323Y-77184445D01*
X123382866Y-77233235D01*
X123314254Y-77271580D01*
X123266498Y-77297748D01*
X123242609Y-77310007D01*
X123240461Y-77310700D01*
X123224890Y-77302044D01*
X123183892Y-77278652D01*
X123119968Y-77241966D01*
X123035618Y-77193426D01*
X122933345Y-77134473D01*
X122815647Y-77066550D01*
X122685026Y-76991098D01*
X122543983Y-76909557D01*
X122420987Y-76838399D01*
X121612346Y-76370420D01*
X121612358Y-70778869D01*
X121612369Y-65360070D01*
X121902064Y-65360070D01*
X121906123Y-70781705D01*
X121910181Y-76203339D01*
X122578150Y-76590191D01*
X122712389Y-76667617D01*
X122838387Y-76739679D01*
X122953349Y-76804820D01*
X123054480Y-76861486D01*
X123138984Y-76908122D01*
X123204065Y-76943170D01*
X123246928Y-76965077D01*
X123264777Y-76972286D01*
X123264860Y-76972270D01*
X123282241Y-76963450D01*
X123324709Y-76940047D01*
X123389435Y-76903673D01*
X123473587Y-76855936D01*
X123574334Y-76798449D01*
X123688846Y-76732822D01*
X123814293Y-76660665D01*
X123939741Y-76588272D01*
X124595882Y-76209047D01*
X124598770Y-74296785D01*
X124599260Y-74023460D01*
X124599911Y-73740695D01*
X124600706Y-73452353D01*
X124601631Y-73162294D01*
X124602668Y-72874379D01*
X124603801Y-72592470D01*
X124605014Y-72320428D01*
X124606291Y-72062115D01*
X124607616Y-71821390D01*
X124608973Y-71602116D01*
X124610345Y-71408154D01*
X124611447Y-71273298D01*
X124621235Y-70162073D01*
X125280135Y-74347404D01*
X125337303Y-74710477D01*
X125393168Y-75065159D01*
X125447522Y-75410134D01*
X125500157Y-75744083D01*
X125550863Y-76065687D01*
X125599434Y-76373631D01*
X125645660Y-76666594D01*
X125689334Y-76943261D01*
X125730248Y-77202312D01*
X125768192Y-77442429D01*
X125802959Y-77662296D01*
X125834341Y-77860593D01*
X125862129Y-78036004D01*
X125886115Y-78187210D01*
X125906091Y-78312893D01*
X125921848Y-78411735D01*
X125933179Y-78482420D01*
X125939874Y-78523627D01*
X125941762Y-78534499D01*
X125964807Y-78548410D01*
X126012807Y-78576581D01*
X126083406Y-78617658D01*
X126174245Y-78670290D01*
X126282969Y-78733123D01*
X126407220Y-78804806D01*
X126544641Y-78883985D01*
X126692875Y-78969309D01*
X126849565Y-79059423D01*
X127012354Y-79152976D01*
X127178885Y-79248616D01*
X127346800Y-79344989D01*
X127513743Y-79440742D01*
X127677357Y-79534524D01*
X127835285Y-79624982D01*
X127985168Y-79710763D01*
X128124652Y-79790514D01*
X128251377Y-79862883D01*
X128362988Y-79926517D01*
X128457128Y-79980064D01*
X128531438Y-80022171D01*
X128583563Y-80051485D01*
X128611145Y-80066655D01*
X128614926Y-80068507D01*
X128633427Y-80061777D01*
X128676916Y-80040257D01*
X128742557Y-80005513D01*
X128827513Y-79959109D01*
X128928949Y-79902610D01*
X129044030Y-79837582D01*
X129169920Y-79765591D01*
X129300925Y-79689861D01*
X129962445Y-79305473D01*
X130060653Y-78798112D01*
X130075577Y-78721041D01*
X130096194Y-78614620D01*
X130122052Y-78481181D01*
X130152697Y-78323057D01*
X130187679Y-78142581D01*
X130226544Y-77942087D01*
X130268840Y-77723907D01*
X130314115Y-77490375D01*
X130361917Y-77243823D01*
X130411793Y-76986586D01*
X130463291Y-76720995D01*
X130515959Y-76449385D01*
X130569344Y-76174087D01*
X130600793Y-76011918D01*
X131042724Y-73733086D01*
X131148180Y-73791266D01*
X131204007Y-73823232D01*
X131251469Y-73852487D01*
X131280820Y-73873006D01*
X131281877Y-73873901D01*
X131284926Y-73877697D01*
X131287749Y-73884405D01*
X131290354Y-73895232D01*
X131292750Y-73911384D01*
X131294947Y-73934067D01*
X131296953Y-73964486D01*
X131298777Y-74003848D01*
X131300428Y-74053358D01*
X131301915Y-74114223D01*
X131303247Y-74187649D01*
X131304432Y-74274841D01*
X131305481Y-74377006D01*
X131306402Y-74495349D01*
X131307203Y-74631076D01*
X131307894Y-74785394D01*
X131308483Y-74959509D01*
X131308980Y-75154625D01*
X131309393Y-75371950D01*
X131309732Y-75612690D01*
X131310006Y-75878050D01*
X131310222Y-76169236D01*
X131310391Y-76487454D01*
X131310521Y-76833910D01*
X131310621Y-77209811D01*
X131310700Y-77616362D01*
X131310724Y-77764757D01*
X131311332Y-81631156D01*
X131968317Y-82012971D01*
X132101387Y-82090029D01*
X132226208Y-82161776D01*
X132339960Y-82226630D01*
X132439827Y-82283010D01*
X132522991Y-82329334D01*
X132586634Y-82364021D01*
X132627939Y-82385488D01*
X132643944Y-82392195D01*
X132659422Y-82383990D01*
X132701611Y-82360316D01*
X132769295Y-82321878D01*
X132861252Y-82269376D01*
X132976265Y-82203514D01*
X133113113Y-82124993D01*
X133270578Y-82034515D01*
X133447440Y-81932782D01*
X133642481Y-81820497D01*
X133854480Y-81698362D01*
X134082219Y-81567079D01*
X134324478Y-81427350D01*
X134580039Y-81279877D01*
X134847682Y-81125363D01*
X135126188Y-80964509D01*
X135414337Y-80798018D01*
X135710911Y-80626591D01*
X135996477Y-80461465D01*
X139330368Y-78533324D01*
X139322252Y-67673166D01*
X138661952Y-67290271D01*
X138528866Y-67213307D01*
X138404359Y-67141710D01*
X138291196Y-67077040D01*
X138192138Y-67020857D01*
X138109950Y-66974722D01*
X138047394Y-66940193D01*
X138007233Y-66918831D01*
X137992257Y-66912179D01*
X137976814Y-66920986D01*
X137936198Y-66944365D01*
X137873167Y-66980723D01*
X137790482Y-67028465D01*
X137690903Y-67085997D01*
X137577188Y-67151725D01*
X137452098Y-67224056D01*
X137318394Y-67301394D01*
X137317201Y-67302084D01*
X136651540Y-67687186D01*
X136651540Y-76984104D01*
X135990381Y-77367128D01*
X135857032Y-77444222D01*
X135732157Y-77516110D01*
X135618537Y-77581215D01*
X135518954Y-77637956D01*
X135436188Y-77684754D01*
X135373022Y-77720029D01*
X135332236Y-77742203D01*
X135316652Y-77749700D01*
X135300581Y-77741737D01*
X135259413Y-77719092D01*
X135195925Y-77683352D01*
X135112894Y-77636101D01*
X135013097Y-77578928D01*
X134899311Y-77513417D01*
X134774315Y-77441155D01*
X134642455Y-77364641D01*
X133980829Y-76980034D01*
X133972760Y-73876621D01*
X133964691Y-70773207D01*
X131959670Y-69614024D01*
X129954648Y-68454840D01*
X129288958Y-68835183D01*
X129154529Y-68912170D01*
X129028435Y-68984736D01*
X128913500Y-69051229D01*
X128812551Y-69109997D01*
X128728414Y-69159388D01*
X128663916Y-69197752D01*
X128621883Y-69223437D01*
X128605212Y-69234713D01*
X128600472Y-69252900D01*
X128591297Y-69300970D01*
X128578011Y-69376885D01*
X128560940Y-69478607D01*
X128540408Y-69604096D01*
X128516740Y-69751316D01*
X128490260Y-69918227D01*
X128461294Y-70102792D01*
X128430165Y-70302971D01*
X128397198Y-70516727D01*
X128362719Y-70742021D01*
X128327052Y-70976815D01*
X128314742Y-71058246D01*
X128267778Y-71368414D01*
X128225292Y-71647110D01*
X128187205Y-71894814D01*
X128153440Y-72112004D01*
X128123920Y-72299160D01*
X128098567Y-72456761D01*
X128077303Y-72585288D01*
X128060051Y-72685219D01*
X128046734Y-72757033D01*
X128037273Y-72801210D01*
X128031592Y-72818230D01*
X128030261Y-72817204D01*
X128026995Y-72796685D01*
X128019879Y-72745768D01*
X128009122Y-72666072D01*
X127994934Y-72559217D01*
X127977525Y-72426824D01*
X127957104Y-72270512D01*
X127933881Y-72091900D01*
X127908065Y-71892609D01*
X127879866Y-71674258D01*
X127849494Y-71438467D01*
X127817158Y-71186856D01*
X127783068Y-70921045D01*
X127747433Y-70642654D01*
X127710463Y-70353302D01*
X127672367Y-70054609D01*
X127646434Y-69850979D01*
X127607801Y-69547530D01*
X127570241Y-69252670D01*
X127533957Y-68967994D01*
X127499153Y-68695096D01*
X127466034Y-68435573D01*
X127434804Y-68191018D01*
X127405667Y-67963027D01*
X127378827Y-67753196D01*
X127354489Y-67563119D01*
X127332855Y-67394392D01*
X127314131Y-67248609D01*
X127298520Y-67127366D01*
X127286227Y-67032257D01*
X127277456Y-66964879D01*
X127272410Y-66926825D01*
X127271208Y-66918503D01*
X127257080Y-66909108D01*
X127216884Y-66884727D01*
X127152526Y-66846462D01*
X127065916Y-66795418D01*
X126958962Y-66732698D01*
X126833573Y-66659405D01*
X126691657Y-66576643D01*
X126535122Y-66485515D01*
X126365877Y-66387125D01*
X126185830Y-66282576D01*
X125996891Y-66172971D01*
X125800966Y-66059415D01*
X125599966Y-65943010D01*
X125395797Y-65824861D01*
X125190369Y-65706070D01*
X124985590Y-65587741D01*
X124783369Y-65470978D01*
X124585614Y-65356883D01*
X124394233Y-65246562D01*
X124211135Y-65141116D01*
X124038228Y-65041649D01*
X123877421Y-64949266D01*
X123730622Y-64865069D01*
X123599739Y-64790162D01*
X123486682Y-64725648D01*
X123393358Y-64672631D01*
X123321677Y-64632214D01*
X123273545Y-64605502D01*
X123250873Y-64593596D01*
X123249392Y-64593062D01*
X123232531Y-64600865D01*
X123190543Y-64623278D01*
X123126224Y-64658729D01*
X123042372Y-64705646D01*
X122941782Y-64762455D01*
X122827252Y-64827583D01*
X122701578Y-64899459D01*
X122567570Y-64976501D01*
X121902064Y-65360070D01*
X121612369Y-65360070D01*
X121612369Y-65187319D01*
X122420580Y-64720684D01*
G37*
D11*
%TO.C,SW1*%
X20066000Y-9525000D02*
X34036000Y-9525000D01*
X34036000Y-9525000D02*
X34036000Y-23495000D01*
X20066000Y-23495000D02*
X20066000Y-9525000D01*
X34036000Y-23495000D02*
X20066000Y-23495000D01*
%TO.C,SW8*%
X153416000Y-9525000D02*
X167386000Y-9525000D01*
X167386000Y-9525000D02*
X167386000Y-23495000D01*
X167386000Y-23495000D02*
X153416000Y-23495000D01*
X153416000Y-23495000D02*
X153416000Y-9525000D01*
%TO.C,SW27*%
X143891000Y-47625000D02*
X157861000Y-47625000D01*
X157861000Y-47625000D02*
X157861000Y-61595000D01*
X143891000Y-61595000D02*
X143891000Y-47625000D01*
X157861000Y-61595000D02*
X143891000Y-61595000D01*
%TO.C,SW9*%
X172466000Y-23495000D02*
X172466000Y-9525000D01*
X186436000Y-23495000D02*
X172466000Y-23495000D01*
X172466000Y-9525000D02*
X186436000Y-9525000D01*
X186436000Y-9525000D02*
X186436000Y-23495000D01*
%TO.C,SW11*%
X20066000Y-42545000D02*
X20066000Y-28575000D01*
X20066000Y-28575000D02*
X34036000Y-28575000D01*
X34036000Y-42545000D02*
X20066000Y-42545000D01*
X34036000Y-28575000D02*
X34036000Y-42545000D01*
%TO.C,SW19*%
X186436000Y-28575000D02*
X186436000Y-42545000D01*
X172466000Y-28575000D02*
X186436000Y-28575000D01*
X186436000Y-42545000D02*
X172466000Y-42545000D01*
X172466000Y-42545000D02*
X172466000Y-28575000D01*
D12*
%TO.C,U1*%
X20666000Y-13205000D02*
X18126000Y-13205000D01*
X18126000Y-8125000D02*
X18126000Y-10665000D01*
X35906000Y-8125000D02*
X18126000Y-8125000D01*
X18126000Y-41145000D02*
X35906000Y-41145000D01*
X20666000Y-10665000D02*
X20666000Y-13205000D01*
X35906000Y-10665000D02*
X35906000Y-8125000D01*
X35906000Y-41145000D02*
X35906000Y-10665000D01*
X20666000Y-10665000D02*
X18126000Y-10665000D01*
X18126000Y-10665000D02*
X18126000Y-41145000D01*
D10*
X31947568Y-16544360D02*
X31947568Y-16844360D01*
X31947568Y-16844360D02*
X31847568Y-16844360D01*
X31847568Y-16844360D02*
X31847568Y-16544360D01*
X31847568Y-16544360D02*
X31947568Y-16544360D01*
G36*
X31947568Y-16844360D02*
G01*
X31847568Y-16844360D01*
X31847568Y-16544360D01*
X31947568Y-16544360D01*
X31947568Y-16844360D01*
G37*
X31947568Y-16844360D02*
X31847568Y-16844360D01*
X31847568Y-16544360D01*
X31947568Y-16544360D01*
X31947568Y-16844360D01*
X31947568Y-17144360D02*
X31947568Y-17344360D01*
X31947568Y-17344360D02*
X31847568Y-17344360D01*
X31847568Y-17344360D02*
X31847568Y-17144360D01*
X31847568Y-17144360D02*
X31947568Y-17144360D01*
G36*
X31947568Y-17344360D02*
G01*
X31847568Y-17344360D01*
X31847568Y-17144360D01*
X31947568Y-17144360D01*
X31947568Y-17344360D01*
G37*
X31947568Y-17344360D02*
X31847568Y-17344360D01*
X31847568Y-17144360D01*
X31947568Y-17144360D01*
X31947568Y-17344360D01*
X31747568Y-16944360D02*
X31747568Y-17044360D01*
X31747568Y-17044360D02*
X31647568Y-17044360D01*
X31647568Y-17044360D02*
X31647568Y-16944360D01*
X31647568Y-16944360D02*
X31747568Y-16944360D01*
G36*
X31747568Y-17044360D02*
G01*
X31647568Y-17044360D01*
X31647568Y-16944360D01*
X31747568Y-16944360D01*
X31747568Y-17044360D01*
G37*
X31747568Y-17044360D02*
X31647568Y-17044360D01*
X31647568Y-16944360D01*
X31747568Y-16944360D01*
X31747568Y-17044360D01*
X31947568Y-16544360D02*
X31947568Y-16644360D01*
X31947568Y-16644360D02*
X31447568Y-16644360D01*
X31447568Y-16644360D02*
X31447568Y-16544360D01*
X31447568Y-16544360D02*
X31947568Y-16544360D01*
G36*
X31947568Y-16644360D02*
G01*
X31447568Y-16644360D01*
X31447568Y-16544360D01*
X31947568Y-16544360D01*
X31947568Y-16644360D01*
G37*
X31947568Y-16644360D02*
X31447568Y-16644360D01*
X31447568Y-16544360D01*
X31947568Y-16544360D01*
X31947568Y-16644360D01*
X31547568Y-16544360D02*
X31547568Y-17344360D01*
X31547568Y-17344360D02*
X31447568Y-17344360D01*
X31447568Y-17344360D02*
X31447568Y-16544360D01*
X31447568Y-16544360D02*
X31547568Y-16544360D01*
G36*
X31547568Y-17344360D02*
G01*
X31447568Y-17344360D01*
X31447568Y-16544360D01*
X31547568Y-16544360D01*
X31547568Y-17344360D01*
G37*
X31547568Y-17344360D02*
X31447568Y-17344360D01*
X31447568Y-16544360D01*
X31547568Y-16544360D01*
X31547568Y-17344360D01*
D11*
%TO.C,SW17*%
X134366000Y-28575000D02*
X148336000Y-28575000D01*
X148336000Y-42545000D02*
X134366000Y-42545000D01*
X134366000Y-42545000D02*
X134366000Y-28575000D01*
X148336000Y-28575000D02*
X148336000Y-42545000D01*
%TO.C,SW26*%
X124841000Y-47625000D02*
X138811000Y-47625000D01*
X138811000Y-61595000D02*
X124841000Y-61595000D01*
X138811000Y-47625000D02*
X138811000Y-61595000D01*
X124841000Y-61595000D02*
X124841000Y-47625000D01*
%TO.C,SW14*%
X77216000Y-42545000D02*
X77216000Y-28575000D01*
X91186000Y-42545000D02*
X77216000Y-42545000D01*
X77216000Y-28575000D02*
X91186000Y-28575000D01*
X91186000Y-28575000D02*
X91186000Y-42545000D01*
%TO.C,SW29*%
X186753500Y-61595000D02*
X186753500Y-47625000D01*
X200723500Y-61595000D02*
X186753500Y-61595000D01*
X186753500Y-47625000D02*
X200723500Y-47625000D01*
X200723500Y-47625000D02*
X200723500Y-61595000D01*
%TO.C,SW6*%
X129286000Y-9525000D02*
X129286000Y-23495000D01*
X115316000Y-9525000D02*
X129286000Y-9525000D01*
X129286000Y-23495000D02*
X115316000Y-23495000D01*
X115316000Y-23495000D02*
X115316000Y-9525000D01*
%TO.C,SW24*%
X100711000Y-47625000D02*
X100711000Y-61595000D01*
X100711000Y-61595000D02*
X86741000Y-61595000D01*
X86741000Y-47625000D02*
X100711000Y-47625000D01*
X86741000Y-61595000D02*
X86741000Y-47625000D01*
%TO.C,SW28*%
X162941000Y-47625000D02*
X176911000Y-47625000D01*
X162941000Y-61595000D02*
X162941000Y-47625000D01*
X176911000Y-47625000D02*
X176911000Y-61595000D01*
X176911000Y-61595000D02*
X162941000Y-61595000D01*
%TO.C,SW4*%
X91186000Y-9525000D02*
X91186000Y-23495000D01*
X77216000Y-23495000D02*
X77216000Y-9525000D01*
X91186000Y-23495000D02*
X77216000Y-23495000D01*
X77216000Y-9525000D02*
X91186000Y-9525000D01*
%TO.C,SW5*%
X110236000Y-23495000D02*
X96266000Y-23495000D01*
X110236000Y-9525000D02*
X110236000Y-23495000D01*
X96266000Y-23495000D02*
X96266000Y-9525000D01*
X96266000Y-9525000D02*
X110236000Y-9525000D01*
%TO.C,SW16*%
X115316000Y-42545000D02*
X115316000Y-28575000D01*
X129286000Y-28575000D02*
X129286000Y-42545000D01*
X129286000Y-42545000D02*
X115316000Y-42545000D01*
X115316000Y-28575000D02*
X129286000Y-28575000D01*
%TO.C,SW32*%
X195961000Y-80645000D02*
X181991000Y-80645000D01*
X181991000Y-80645000D02*
X181991000Y-66675000D01*
X181991000Y-66675000D02*
X195961000Y-66675000D01*
X195961000Y-66675000D02*
X195961000Y-80645000D01*
%TO.C,SW2*%
X39116000Y-23495000D02*
X39116000Y-9525000D01*
X53086000Y-9525000D02*
X53086000Y-23495000D01*
X39116000Y-9525000D02*
X53086000Y-9525000D01*
X53086000Y-23495000D02*
X39116000Y-23495000D01*
%TO.C,SW10*%
X191516000Y-23495000D02*
X191516000Y-9525000D01*
X191516000Y-9525000D02*
X205486000Y-9525000D01*
X205486000Y-23495000D02*
X191516000Y-23495000D01*
X205486000Y-9525000D02*
X205486000Y-23495000D01*
%TO.C,SW15*%
X110236000Y-42545000D02*
X96266000Y-42545000D01*
X96266000Y-28575000D02*
X110236000Y-28575000D01*
X110236000Y-28575000D02*
X110236000Y-42545000D01*
X96266000Y-42545000D02*
X96266000Y-28575000D01*
%TO.C,SW18*%
X153416000Y-28575000D02*
X167386000Y-28575000D01*
X153416000Y-42545000D02*
X153416000Y-28575000D01*
X167386000Y-28575000D02*
X167386000Y-42545000D01*
X167386000Y-42545000D02*
X153416000Y-42545000D01*
%TO.C,SW3*%
X72136000Y-23495000D02*
X58166000Y-23495000D01*
X58166000Y-23495000D02*
X58166000Y-9525000D01*
X58166000Y-9525000D02*
X72136000Y-9525000D01*
X72136000Y-9525000D02*
X72136000Y-23495000D01*
%TO.C,GND*%
X85066000Y-75605000D02*
X85066000Y-73705000D01*
X85066000Y-73705000D02*
X86966000Y-73705000D01*
X86966000Y-73705000D02*
X86966000Y-75605000D01*
X86966000Y-75605000D02*
X85066000Y-75605000D01*
%TO.C,Reset*%
X80516000Y-75605000D02*
X80516000Y-73705000D01*
X82416000Y-73705000D02*
X82416000Y-75605000D01*
X80516000Y-73705000D02*
X82416000Y-73705000D01*
X82416000Y-75605000D02*
X80516000Y-75605000D01*
%TO.C,SW13*%
X58166000Y-28575000D02*
X72136000Y-28575000D01*
X58166000Y-42545000D02*
X58166000Y-28575000D01*
X72136000Y-42545000D02*
X58166000Y-42545000D01*
X72136000Y-28575000D02*
X72136000Y-42545000D01*
%TO.C,SW31*%
X119761000Y-80645000D02*
X105791000Y-80645000D01*
X119761000Y-66675000D02*
X119761000Y-80645000D01*
X105791000Y-66675000D02*
X119761000Y-66675000D01*
X105791000Y-80645000D02*
X105791000Y-66675000D01*
%TO.C,SW7*%
X134366000Y-9525000D02*
X148336000Y-9525000D01*
X148336000Y-23495000D02*
X134366000Y-23495000D01*
X148336000Y-9525000D02*
X148336000Y-23495000D01*
X134366000Y-23495000D02*
X134366000Y-9525000D01*
%TO.C,SW23*%
X67691000Y-61595000D02*
X67691000Y-47625000D01*
X81661000Y-61595000D02*
X67691000Y-61595000D01*
X67691000Y-47625000D02*
X81661000Y-47625000D01*
X81661000Y-47625000D02*
X81661000Y-61595000D01*
%TO.C,SW22*%
X48641000Y-61595000D02*
X48641000Y-47625000D01*
X48641000Y-47625000D02*
X62611000Y-47625000D01*
X62611000Y-47625000D02*
X62611000Y-61595000D01*
X62611000Y-61595000D02*
X48641000Y-61595000D01*
%TO.C,SW12*%
X53086000Y-28575000D02*
X53086000Y-42545000D01*
X53086000Y-42545000D02*
X39116000Y-42545000D01*
X39116000Y-28575000D02*
X53086000Y-28575000D01*
X39116000Y-42545000D02*
X39116000Y-28575000D01*
%TO.C,SW25*%
X105791000Y-47625000D02*
X119761000Y-47625000D01*
X119761000Y-47625000D02*
X119761000Y-61595000D01*
X105791000Y-61595000D02*
X105791000Y-47625000D01*
X119761000Y-61595000D02*
X105791000Y-61595000D01*
%TO.C,SW21*%
X24828500Y-61595000D02*
X24828500Y-47625000D01*
X38798500Y-47625000D02*
X38798500Y-61595000D01*
X24828500Y-47625000D02*
X38798500Y-47625000D01*
X38798500Y-61595000D02*
X24828500Y-61595000D01*
%TO.C,SW30*%
X29591000Y-80645000D02*
X29591000Y-66675000D01*
X29591000Y-66675000D02*
X43561000Y-66675000D01*
X43561000Y-66675000D02*
X43561000Y-80645000D01*
X43561000Y-80645000D02*
X29591000Y-80645000D01*
%TO.C,SW20*%
X205486000Y-42545000D02*
X191516000Y-42545000D01*
X191516000Y-42545000D02*
X191516000Y-28575000D01*
X205486000Y-28575000D02*
X205486000Y-42545000D01*
X191516000Y-28575000D02*
X205486000Y-28575000D01*
%TD*%
D13*
%TO.C,U1*%
X19396000Y-11935000D03*
D14*
X19396000Y-14475000D03*
X19396000Y-17015000D03*
X19396000Y-19555000D03*
X19396000Y-22095000D03*
X19396000Y-24635000D03*
X19396000Y-27175000D03*
X19396000Y-29715000D03*
X19396000Y-32255000D03*
X19396000Y-34795000D03*
X19396000Y-37335000D03*
X19396000Y-39875000D03*
X34636000Y-39875000D03*
X34636000Y-37335000D03*
X34636000Y-34795000D03*
X34636000Y-32255000D03*
X34636000Y-29715000D03*
X34636000Y-27175000D03*
X34636000Y-24635000D03*
X34636000Y-22095000D03*
X34636000Y-19555000D03*
X34636000Y-17015000D03*
X34636000Y-14475000D03*
X34636000Y-11935000D03*
%TD*%
M02*
